<?xml version="1.0" encoding="utf-8"?>
<!-- Generator: Adobe Illustrator 18.0.0, SVG Export Plug-In . SVG Version: 6.00 Build 0)  -->
<!DOCTYPE svg PUBLIC "-//W3C//DTD SVG 1.1//EN" "http://www.w3.org/Graphics/SVG/1.1/DTD/svg11.dtd">
<svg version="1.1" id="Icon_Set" xmlns="http://www.w3.org/2000/svg" xmlns:xlink="http://www.w3.org/1999/xlink" x="0px" y="0px"
	 viewBox="0 0 256 256" style="enable-background:new 0 0 256 256;" xml:space="preserve">
<style type="text/css">
	.st0{fill:#484771;}
	.st1{fill:#F1C48B;}
	.st2{fill:#D5E6F7;}
	.st3{fill:#A0D1F2;}
	.st4{fill:#FD919F;}
	.st5{fill:#E0667D;}
	.st6{fill:#504774;}
	.st7{fill:#7BACF1;}
	.st8{fill:#FFFFFF;}
	.st9{fill:#D4E7F8;}
	.st10{fill:#A3D0F1;}
	.st11{fill:#4C4372;}
	.st12{fill:#7BABF3;}
	.st13{fill:#FD919E;}
	.st14{fill:#D3E6F8;}
	.st15{fill:#E8677D;}
	.st16{fill:#A4CFF2;}
</style>
<g>
	<g>
		<circle class="st1" cx="128" cy="128" r="103.873"/>
	</g>
	<g>
		<polygon class="st4" points="216.524,91.332 172.745,83.255 164.668,39.476 128,64.721 91.332,39.476 83.255,83.255 
			39.476,91.332 64.721,128 39.476,164.668 83.255,172.745 91.332,216.524 128,191.279 164.668,216.524 172.745,172.745 
			216.524,164.668 191.279,128 		"/>
	</g>
	<g>
		<g>
			<path class="st5" d="M216.524,91.332l-13.148-2.426l-25.328,36.788c-0.956,1.388-0.956,3.223,0,4.611l25.328,36.788l13.148-2.426
				L191.279,128L216.524,91.332z"/>
		</g>
	</g>
	<g>
		<path class="st6" d="M164.668,219.524c-0.599,0-1.193-0.179-1.701-0.529L128,194.921l-34.967,24.074
			c-0.838,0.577-1.908,0.69-2.85,0.3c-0.938-0.389-1.617-1.228-1.802-2.227L80.68,175.32l-41.747-7.702
			c-1-0.185-1.839-0.863-2.228-1.802c-0.39-0.939-0.276-2.012,0.301-2.849L61.079,128L37.006,93.033
			c-0.577-0.837-0.69-1.91-0.301-2.849c0.389-0.939,1.228-1.618,2.228-1.802L80.68,80.68l7.702-41.748
			c0.185-1,0.863-1.838,1.802-2.227c0.941-0.389,2.012-0.276,2.85,0.3L128,61.079l34.967-24.074c0.839-0.576,1.911-0.689,2.85-0.3
			c0.938,0.389,1.617,1.228,1.802,2.227l7.702,41.748l41.747,7.702c1,0.185,1.839,0.863,2.228,1.802
			c0.39,0.939,0.276,2.012-0.301,2.849L194.921,128l24.073,34.967c0.577,0.837,0.69,1.91,0.301,2.849
			c-0.389,0.939-1.228,1.618-2.228,1.802l-41.747,7.702l-7.702,41.748c-0.185,1-0.863,1.838-1.802,2.227
			C165.446,219.449,165.057,219.524,164.668,219.524z M128,188.279c0.595,0,1.189,0.176,1.701,0.529l32.856,22.621l7.237-39.229
			c0.226-1.223,1.183-2.18,2.406-2.406l39.227-7.237l-22.62-32.856c-0.706-1.024-0.706-2.378,0-3.402l22.62-32.856l-39.227-7.237
			c-1.224-0.226-2.181-1.183-2.406-2.406l-7.237-39.229l-32.856,22.621c-1.023,0.705-2.379,0.705-3.402,0L93.442,44.571L86.205,83.8
			c-0.226,1.223-1.183,2.18-2.406,2.406l-39.227,7.237l22.62,32.856c0.706,1.024,0.706,2.378,0,3.402l-22.62,32.856l39.227,7.237
			c1.224,0.226,2.181,1.183,2.406,2.406l7.237,39.229l32.856-22.621C126.811,188.455,127.405,188.279,128,188.279z"/>
	</g>
	<g>
		<g>
			<path class="st0" d="M122.038,139.924V95.729c0-3.282,2.735-6.017,6.017-6.017s5.907,2.735,5.907,6.017v44.194
				c0,3.391-2.625,6.017-5.907,6.017S122.038,143.315,122.038,139.924z M128.055,166.287c-3.282,0-6.017-2.625-6.017-6.017v-2.188
				c0-3.282,2.735-6.017,6.017-6.017s5.907,2.735,5.907,6.017v2.188C133.962,163.662,131.337,166.287,128.055,166.287z"/>
		</g>
	</g>
</g>
</svg>
