<svg xmlns="http://www.w3.org/2000/svg" xmlns:xlink="http://www.w3.org/1999/xlink" width="40" zoomAndPan="magnify" viewBox="0 0 30 30.000001" height="40" preserveAspectRatio="xMidYMid meet" version="1.0"><defs><clipPath id="c73cb22a40"><path d="M 0.484375 0 L 29.515625 0 L 29.515625 29.03125 L 0.484375 29.03125 Z M 0.484375 0 " clip-rule="nonzero"/></clipPath><clipPath id="8040779966"><path d="M 0.484375 0 L 29.515625 0 L 29.515625 28.917969 L 0.484375 28.917969 Z M 0.484375 0 " clip-rule="nonzero"/></clipPath><clipPath id="916db48f36"><path d="M 15 0 C 6.984375 0 0.484375 6.472656 0.484375 14.460938 C 0.484375 22.445312 6.984375 28.917969 15 28.917969 C 23.015625 28.917969 29.515625 22.445312 29.515625 14.460938 C 29.515625 6.472656 23.015625 0 15 0 Z M 15 0 " clip-rule="nonzero"/></clipPath><clipPath id="f2307613b7"><path d="M 0.484375 0 L 29.515625 0 L 29.515625 28.917969 L 0.484375 28.917969 Z M 0.484375 0 " clip-rule="nonzero"/></clipPath><clipPath id="4d23e67783"><path d="M 15 0 C 6.984375 0 0.484375 6.472656 0.484375 14.460938 C 0.484375 22.445312 6.984375 28.917969 15 28.917969 C 23.015625 28.917969 29.515625 22.445312 29.515625 14.460938 C 29.515625 6.472656 23.015625 0 15 0 Z M 15 0 " clip-rule="nonzero"/></clipPath><clipPath id="b60215f49c"><rect x="0" width="30" y="0" height="29"/></clipPath><clipPath id="a3573fe7b0"><path d="M 3.9375 3.386719 L 26.078125 3.386719 L 26.078125 25.527344 L 3.9375 25.527344 Z M 3.9375 3.386719 " clip-rule="nonzero"/></clipPath><clipPath id="e318b4cc57"><rect x="0" width="30" y="0" height="30"/></clipPath></defs><g clip-path="url(#c73cb22a40)"><g transform="matrix(1, 0, 0, 1, 0, 0.000000000000005692)"><g clip-path="url(#e318b4cc57)"><g clip-path="url(#8040779966)"><g clip-path="url(#916db48f36)"><g transform="matrix(1, 0, 0, 1, 0, 0.000000000000005692)"><g clip-path="url(#b60215f49c)"><g clip-path="url(#f2307613b7)"><g clip-path="url(#4d23e67783)"><path fill="#ad1fea" d="M 0.484375 0 L 29.515625 0 L 29.515625 28.917969 L 0.484375 28.917969 Z M 0.484375 0 " fill-opacity="1" fill-rule="nonzero"/></g></g></g></g></g></g><g clip-path="url(#a3573fe7b0)"><path fill="#ffffff" d="M 15 7.804688 C 18.644531 7.804688 21.640625 10.800781 21.640625 14.445312 C 21.640625 18.09375 18.644531 21.089844 15 21.089844 L 15 25.53125 C 21.140625 25.507812 26.058594 20.539062 26.058594 14.445312 C 26.058594 8.355469 21.089844 3.386719 15 3.386719 C 8.90625 3.386719 3.9375 8.355469 3.9375 14.445312 L 8.359375 14.445312 C 8.359375 10.800781 11.355469 7.804688 15 7.804688 Z M 15 7.804688 " fill-opacity="1" fill-rule="nonzero"/></g></g></g></g></svg>