<svg xmlns="http://www.w3.org/2000/svg" xmlns:xlink="http://www.w3.org/1999/xlink" width="1200" zoomAndPan="magnify" viewBox="0 0 900 374.999991" height="500" preserveAspectRatio="xMidYMid meet" version="1.2"><defs><clipPath id="00e9b9fac2"><path d="M 325 76.175781 L 371.617188 76.175781 L 371.617188 124 L 325 124 Z M 325 76.175781 "/></clipPath><clipPath id="d4068f4b94"><path d="M 370.671875 94.128906 C 370.480469 93.46875 370.289062 92.816406 370.097656 92.15625 C 366.945312 82.863281 358.15625 76.175781 347.800781 76.175781 C 337.035156 76.175781 327.953125 83.40625 325.152344 93.273438 C 333.414062 95.785156 339.746094 102.710938 341.410156 111.304688 C 343.425781 111.160156 345.453125 111.238281 347.4375 111.535156 C 351.203125 112.101562 354.785156 113.445312 358.082031 115.523438 L 357.554688 116.363281 C 354.367188 114.351562 350.917969 113.058594 347.285156 112.511719 C 345.40625 112.226562 343.488281 112.148438 341.574219 112.285156 C 341.574219 112.304688 341.582031 112.332031 341.582031 112.351562 C 341.746094 113.480469 341.832031 114.628906 341.832031 115.792969 C 341.832031 117.679688 341.605469 119.519531 341.183594 121.277344 C 341.097656 121.59375 341.019531 121.914062 340.933594 122.230469 C 340.933594 122.230469 340.933594 122.230469 340.933594 122.238281 C 343.105469 122.898438 345.40625 123.253906 347.785156 123.253906 C 360.792969 123.253906 371.324219 112.714844 371.324219 99.707031 C 371.339844 97.796875 371.109375 95.921875 370.671875 94.128906 Z M 337.953125 99.925781 C 335.867188 99.925781 334.179688 98.238281 334.179688 96.152344 C 334.179688 94.070312 335.867188 92.382812 337.953125 92.382812 C 340.035156 92.382812 341.726562 94.070312 341.726562 96.152344 C 341.726562 98.230469 340.035156 99.925781 337.953125 99.925781 Z M 357.476562 99.925781 C 355.390625 99.925781 353.703125 98.238281 353.703125 96.152344 C 353.703125 94.070312 355.390625 92.382812 357.476562 92.382812 C 359.558594 92.382812 361.246094 94.070312 361.246094 96.152344 C 361.246094 98.230469 359.558594 99.925781 357.476562 99.925781 Z M 357.476562 99.925781 "/></clipPath><linearGradient x1="929.299924" gradientTransform="matrix(0.0659535,0,0,0.0659535,263.860724,42.177609)" y1="872.48999" x2="1629.599848" gradientUnits="userSpaceOnUse" y2="872.48999" id="c98f3ecd76"><stop style="stop-color:#3a4374;stop-opacity:1;" offset="0"/><stop style="stop-color:#3a4374;stop-opacity:1;" offset="0.0078125"/><stop style="stop-color:#3b4375;stop-opacity:1;" offset="0.015625"/><stop style="stop-color:#3c4276;stop-opacity:1;" offset="0.0234375"/><stop style="stop-color:#3d4277;stop-opacity:1;" offset="0.03125"/><stop style="stop-color:#3e4278;stop-opacity:1;" offset="0.0390625"/><stop style="stop-color:#3f4179;stop-opacity:1;" offset="0.046875"/><stop style="stop-color:#40417a;stop-opacity:1;" offset="0.0546875"/><stop style="stop-color:#41417b;stop-opacity:1;" offset="0.0625"/><stop style="stop-color:#42417c;stop-opacity:1;" offset="0.0703125"/><stop style="stop-color:#43407d;stop-opacity:1;" offset="0.078125"/><stop style="stop-color:#43407e;stop-opacity:1;" offset="0.0859375"/><stop style="stop-color:#44407f;stop-opacity:1;" offset="0.09375"/><stop style="stop-color:#453f80;stop-opacity:1;" offset="0.101563"/><stop style="stop-color:#463f80;stop-opacity:1;" offset="0.109375"/><stop style="stop-color:#473f81;stop-opacity:1;" offset="0.117188"/><stop style="stop-color:#483f82;stop-opacity:1;" offset="0.125"/><stop style="stop-color:#493e83;stop-opacity:1;" offset="0.132812"/><stop style="stop-color:#4a3e84;stop-opacity:1;" offset="0.140625"/><stop style="stop-color:#4b3e85;stop-opacity:1;" offset="0.148438"/><stop style="stop-color:#4c3e86;stop-opacity:1;" offset="0.15625"/><stop style="stop-color:#4c3d87;stop-opacity:1;" offset="0.164063"/><stop style="stop-color:#4d3d88;stop-opacity:1;" offset="0.171875"/><stop style="stop-color:#4e3d89;stop-opacity:1;" offset="0.179688"/><stop style="stop-color:#4f3c8a;stop-opacity:1;" offset="0.1875"/><stop style="stop-color:#503c8b;stop-opacity:1;" offset="0.195313"/><stop style="stop-color:#513c8b;stop-opacity:1;" offset="0.203125"/><stop style="stop-color:#523c8c;stop-opacity:1;" offset="0.210938"/><stop style="stop-color:#533b8d;stop-opacity:1;" offset="0.21875"/><stop style="stop-color:#543b8e;stop-opacity:1;" offset="0.226562"/><stop style="stop-color:#553b8f;stop-opacity:1;" offset="0.234375"/><stop style="stop-color:#553a90;stop-opacity:1;" offset="0.242188"/><stop style="stop-color:#563a91;stop-opacity:1;" offset="0.25"/><stop style="stop-color:#573a92;stop-opacity:1;" offset="0.257812"/><stop style="stop-color:#583a93;stop-opacity:1;" offset="0.265625"/><stop style="stop-color:#593994;stop-opacity:1;" offset="0.273438"/><stop style="stop-color:#5a3995;stop-opacity:1;" offset="0.28125"/><stop style="stop-color:#5b3996;stop-opacity:1;" offset="0.289062"/><stop style="stop-color:#5c3897;stop-opacity:1;" offset="0.296875"/><stop style="stop-color:#5d3897;stop-opacity:1;" offset="0.304688"/><stop style="stop-color:#5d3898;stop-opacity:1;" offset="0.3125"/><stop style="stop-color:#5e3899;stop-opacity:1;" offset="0.320312"/><stop style="stop-color:#5f379a;stop-opacity:1;" offset="0.328125"/><stop style="stop-color:#60379b;stop-opacity:1;" offset="0.335938"/><stop style="stop-color:#61379c;stop-opacity:1;" offset="0.34375"/><stop style="stop-color:#62369d;stop-opacity:1;" offset="0.351562"/><stop style="stop-color:#63369e;stop-opacity:1;" offset="0.359375"/><stop style="stop-color:#64369f;stop-opacity:1;" offset="0.367188"/><stop style="stop-color:#6536a0;stop-opacity:1;" offset="0.375"/><stop style="stop-color:#6635a1;stop-opacity:1;" offset="0.382812"/><stop style="stop-color:#6635a2;stop-opacity:1;" offset="0.390625"/><stop style="stop-color:#6735a3;stop-opacity:1;" offset="0.398438"/><stop style="stop-color:#6835a3;stop-opacity:1;" offset="0.40625"/><stop style="stop-color:#6934a4;stop-opacity:1;" offset="0.414062"/><stop style="stop-color:#6a34a5;stop-opacity:1;" offset="0.421875"/><stop style="stop-color:#6b34a6;stop-opacity:1;" offset="0.429688"/><stop style="stop-color:#6c33a7;stop-opacity:1;" offset="0.4375"/><stop style="stop-color:#6d33a8;stop-opacity:1;" offset="0.445312"/><stop style="stop-color:#6e33a9;stop-opacity:1;" offset="0.453125"/><stop style="stop-color:#6f33aa;stop-opacity:1;" offset="0.460938"/><stop style="stop-color:#6f32ab;stop-opacity:1;" offset="0.46875"/><stop style="stop-color:#7032ac;stop-opacity:1;" offset="0.476562"/><stop style="stop-color:#7132ad;stop-opacity:1;" offset="0.484375"/><stop style="stop-color:#7231ae;stop-opacity:1;" offset="0.492188"/><stop style="stop-color:#7331af;stop-opacity:1;" offset="0.5"/><stop style="stop-color:#7431af;stop-opacity:1;" offset="0.507812"/><stop style="stop-color:#7531b0;stop-opacity:1;" offset="0.515625"/><stop style="stop-color:#7630b1;stop-opacity:1;" offset="0.523438"/><stop style="stop-color:#7730b2;stop-opacity:1;" offset="0.53125"/><stop style="stop-color:#7830b3;stop-opacity:1;" offset="0.539062"/><stop style="stop-color:#782fb4;stop-opacity:1;" offset="0.546875"/><stop style="stop-color:#792fb5;stop-opacity:1;" offset="0.554688"/><stop style="stop-color:#7a2fb6;stop-opacity:1;" offset="0.5625"/><stop style="stop-color:#7b2fb7;stop-opacity:1;" offset="0.570313"/><stop style="stop-color:#7c2eb8;stop-opacity:1;" offset="0.578125"/><stop style="stop-color:#7d2eb9;stop-opacity:1;" offset="0.585938"/><stop style="stop-color:#7e2eba;stop-opacity:1;" offset="0.59375"/><stop style="stop-color:#7f2dbb;stop-opacity:1;" offset="0.601562"/><stop style="stop-color:#802dbb;stop-opacity:1;" offset="0.609375"/><stop style="stop-color:#812dbc;stop-opacity:1;" offset="0.617187"/><stop style="stop-color:#812dbd;stop-opacity:1;" offset="0.625"/><stop style="stop-color:#822cbe;stop-opacity:1;" offset="0.632813"/><stop style="stop-color:#832cbf;stop-opacity:1;" offset="0.640625"/><stop style="stop-color:#842cc0;stop-opacity:1;" offset="0.648438"/><stop style="stop-color:#852cc1;stop-opacity:1;" offset="0.65625"/><stop style="stop-color:#862bc2;stop-opacity:1;" offset="0.664062"/><stop style="stop-color:#872bc3;stop-opacity:1;" offset="0.671875"/><stop style="stop-color:#882bc4;stop-opacity:1;" offset="0.679687"/><stop style="stop-color:#892ac5;stop-opacity:1;" offset="0.6875"/><stop style="stop-color:#892ac6;stop-opacity:1;" offset="0.695313"/><stop style="stop-color:#8a2ac6;stop-opacity:1;" offset="0.703125"/><stop style="stop-color:#8b2ac7;stop-opacity:1;" offset="0.710938"/><stop style="stop-color:#8c29c8;stop-opacity:1;" offset="0.71875"/><stop style="stop-color:#8d29c9;stop-opacity:1;" offset="0.726562"/><stop style="stop-color:#8e29ca;stop-opacity:1;" offset="0.734375"/><stop style="stop-color:#8f28cb;stop-opacity:1;" offset="0.742187"/><stop style="stop-color:#9028cc;stop-opacity:1;" offset="0.75"/><stop style="stop-color:#9128cd;stop-opacity:1;" offset="0.757812"/><stop style="stop-color:#9228ce;stop-opacity:1;" offset="0.765625"/><stop style="stop-color:#9227cf;stop-opacity:1;" offset="0.773438"/><stop style="stop-color:#9327d0;stop-opacity:1;" offset="0.78125"/><stop style="stop-color:#9427d1;stop-opacity:1;" offset="0.789062"/><stop style="stop-color:#9526d2;stop-opacity:1;" offset="0.796875"/><stop style="stop-color:#9626d2;stop-opacity:1;" offset="0.804688"/><stop style="stop-color:#9726d3;stop-opacity:1;" offset="0.8125"/><stop style="stop-color:#9826d4;stop-opacity:1;" offset="0.820312"/><stop style="stop-color:#9925d5;stop-opacity:1;" offset="0.828125"/><stop style="stop-color:#9a25d6;stop-opacity:1;" offset="0.835938"/><stop style="stop-color:#9b25d7;stop-opacity:1;" offset="0.84375"/><stop style="stop-color:#9b24d8;stop-opacity:1;" offset="0.851563"/><stop style="stop-color:#9c24d9;stop-opacity:1;" offset="0.859375"/><stop style="stop-color:#9d24da;stop-opacity:1;" offset="0.867188"/><stop style="stop-color:#9e24db;stop-opacity:1;" offset="0.875"/><stop style="stop-color:#9f23dc;stop-opacity:1;" offset="0.882812"/><stop style="stop-color:#a023dd;stop-opacity:1;" offset="0.890625"/><stop style="stop-color:#a123de;stop-opacity:1;" offset="0.898438"/><stop style="stop-color:#a223de;stop-opacity:1;" offset="0.90625"/><stop style="stop-color:#a322df;stop-opacity:1;" offset="0.914063"/><stop style="stop-color:#a422e0;stop-opacity:1;" offset="0.921875"/><stop style="stop-color:#a422e1;stop-opacity:1;" offset="0.929688"/><stop style="stop-color:#a521e2;stop-opacity:1;" offset="0.9375"/><stop style="stop-color:#a621e3;stop-opacity:1;" offset="0.945312"/><stop style="stop-color:#a721e4;stop-opacity:1;" offset="0.953125"/><stop style="stop-color:#a821e5;stop-opacity:1;" offset="0.960937"/><stop style="stop-color:#a920e6;stop-opacity:1;" offset="0.96875"/><stop style="stop-color:#aa20e7;stop-opacity:1;" offset="0.976563"/><stop style="stop-color:#ab20e8;stop-opacity:1;" offset="0.984375"/><stop style="stop-color:#ac1fe9;stop-opacity:1;" offset="0.992188"/><stop style="stop-color:#ad1fea;stop-opacity:1;" offset="1"/></linearGradient><clipPath id="81544f07cc"><path d="M 292.867188 92 L 340 92 L 340 139.925781 L 292.867188 139.925781 Z M 292.867188 92 "/></clipPath><clipPath id="490eda8fa2"><path d="M 323.265625 94.011719 C 321.09375 93.351562 318.792969 92.996094 316.414062 92.996094 C 303.414062 92.996094 292.875 103.535156 292.875 116.535156 C 292.875 128.722656 302.132812 138.746094 314 139.953125 C 314.5 139.988281 315 140.027344 315.503906 140.058594 C 315.804688 140.074219 316.109375 140.078125 316.414062 140.078125 C 327.175781 140.078125 336.257812 132.851562 339.0625 122.984375 C 339.1875 122.535156 339.304688 122.082031 339.402344 121.625 C 339.46875 121.28125 339.542969 120.933594 339.609375 120.589844 C 339.839844 119.277344 339.957031 117.917969 339.957031 116.539062 C 339.957031 115.367188 339.871094 114.21875 339.707031 113.089844 C 338.375 104.015625 331.859375 96.621094 323.265625 94.011719 Z M 306.566406 109.191406 C 308.648438 109.191406 310.339844 110.882812 310.339844 112.964844 C 310.339844 115.050781 308.648438 116.738281 306.566406 116.738281 C 304.480469 116.738281 302.792969 115.050781 302.792969 112.964844 C 302.785156 110.882812 304.480469 109.191406 306.566406 109.191406 Z M 316.109375 134.800781 C 310.292969 134.796875 305.003906 131.242188 302.753906 125.820312 C 311.738281 125.667969 320.710938 125.511719 329.695312 125.359375 C 327.558594 131.035156 322.117188 134.808594 316.109375 134.800781 Z M 326.082031 116.746094 C 323.996094 116.746094 322.308594 115.054688 322.308594 112.972656 C 322.308594 110.886719 323.996094 109.199219 326.082031 109.199219 C 328.164062 109.199219 329.855469 110.886719 329.855469 112.972656 C 329.859375 115.054688 328.171875 116.746094 326.082031 116.746094 Z M 326.082031 116.746094 "/></clipPath><linearGradient x1="439.899868" gradientTransform="matrix(0.0659535,0,0,0.0659535,263.860724,42.177609)" y1="1127.51001" x2="1153.799802" gradientUnits="userSpaceOnUse" y2="1127.51001" id="7de01e4e7f"><stop style="stop-color:#3a4374;stop-opacity:1;" offset="0"/><stop style="stop-color:#3a4374;stop-opacity:1;" offset="0.0078125"/><stop style="stop-color:#3b4375;stop-opacity:1;" offset="0.015625"/><stop style="stop-color:#3c4276;stop-opacity:1;" offset="0.0234375"/><stop style="stop-color:#3d4277;stop-opacity:1;" offset="0.03125"/><stop style="stop-color:#3e4278;stop-opacity:1;" offset="0.0390625"/><stop style="stop-color:#3f4179;stop-opacity:1;" offset="0.046875"/><stop style="stop-color:#40417a;stop-opacity:1;" offset="0.0546875"/><stop style="stop-color:#41417b;stop-opacity:1;" offset="0.0625"/><stop style="stop-color:#42417c;stop-opacity:1;" offset="0.0703125"/><stop style="stop-color:#43407d;stop-opacity:1;" offset="0.078125"/><stop style="stop-color:#43407e;stop-opacity:1;" offset="0.0859375"/><stop style="stop-color:#44407f;stop-opacity:1;" offset="0.09375"/><stop style="stop-color:#453f80;stop-opacity:1;" offset="0.101562"/><stop style="stop-color:#463f80;stop-opacity:1;" offset="0.109375"/><stop style="stop-color:#473f81;stop-opacity:1;" offset="0.117187"/><stop style="stop-color:#483f82;stop-opacity:1;" offset="0.125"/><stop style="stop-color:#493e83;stop-opacity:1;" offset="0.132812"/><stop style="stop-color:#4a3e84;stop-opacity:1;" offset="0.140625"/><stop style="stop-color:#4b3e85;stop-opacity:1;" offset="0.148438"/><stop style="stop-color:#4c3e86;stop-opacity:1;" offset="0.15625"/><stop style="stop-color:#4c3d87;stop-opacity:1;" offset="0.164062"/><stop style="stop-color:#4d3d88;stop-opacity:1;" offset="0.171875"/><stop style="stop-color:#4e3d89;stop-opacity:1;" offset="0.179687"/><stop style="stop-color:#4f3c8a;stop-opacity:1;" offset="0.1875"/><stop style="stop-color:#503c8b;stop-opacity:1;" offset="0.195312"/><stop style="stop-color:#513c8c;stop-opacity:1;" offset="0.203125"/><stop style="stop-color:#523c8c;stop-opacity:1;" offset="0.210937"/><stop style="stop-color:#533b8d;stop-opacity:1;" offset="0.21875"/><stop style="stop-color:#543b8e;stop-opacity:1;" offset="0.226562"/><stop style="stop-color:#553b8f;stop-opacity:1;" offset="0.234375"/><stop style="stop-color:#553a90;stop-opacity:1;" offset="0.242187"/><stop style="stop-color:#563a91;stop-opacity:1;" offset="0.25"/><stop style="stop-color:#573a92;stop-opacity:1;" offset="0.257812"/><stop style="stop-color:#583a93;stop-opacity:1;" offset="0.265625"/><stop style="stop-color:#593994;stop-opacity:1;" offset="0.273438"/><stop style="stop-color:#5a3995;stop-opacity:1;" offset="0.28125"/><stop style="stop-color:#5b3996;stop-opacity:1;" offset="0.289062"/><stop style="stop-color:#5c3897;stop-opacity:1;" offset="0.296875"/><stop style="stop-color:#5d3897;stop-opacity:1;" offset="0.304688"/><stop style="stop-color:#5d3898;stop-opacity:1;" offset="0.3125"/><stop style="stop-color:#5e3899;stop-opacity:1;" offset="0.320312"/><stop style="stop-color:#5f379a;stop-opacity:1;" offset="0.328125"/><stop style="stop-color:#60379b;stop-opacity:1;" offset="0.335937"/><stop style="stop-color:#61379c;stop-opacity:1;" offset="0.34375"/><stop style="stop-color:#62369d;stop-opacity:1;" offset="0.351562"/><stop style="stop-color:#63369e;stop-opacity:1;" offset="0.359375"/><stop style="stop-color:#64369f;stop-opacity:1;" offset="0.367187"/><stop style="stop-color:#6536a0;stop-opacity:1;" offset="0.375"/><stop style="stop-color:#6635a1;stop-opacity:1;" offset="0.382812"/><stop style="stop-color:#6635a2;stop-opacity:1;" offset="0.390625"/><stop style="stop-color:#6735a3;stop-opacity:1;" offset="0.398437"/><stop style="stop-color:#6835a3;stop-opacity:1;" offset="0.40625"/><stop style="stop-color:#6934a4;stop-opacity:1;" offset="0.414062"/><stop style="stop-color:#6a34a5;stop-opacity:1;" offset="0.421875"/><stop style="stop-color:#6b34a6;stop-opacity:1;" offset="0.429687"/><stop style="stop-color:#6c33a7;stop-opacity:1;" offset="0.4375"/><stop style="stop-color:#6d33a8;stop-opacity:1;" offset="0.445312"/><stop style="stop-color:#6e33a9;stop-opacity:1;" offset="0.453125"/><stop style="stop-color:#6f33aa;stop-opacity:1;" offset="0.460937"/><stop style="stop-color:#6f32ab;stop-opacity:1;" offset="0.46875"/><stop style="stop-color:#7032ac;stop-opacity:1;" offset="0.476562"/><stop style="stop-color:#7132ad;stop-opacity:1;" offset="0.484375"/><stop style="stop-color:#7231ae;stop-opacity:1;" offset="0.492187"/><stop style="stop-color:#7331af;stop-opacity:1;" offset="0.5"/><stop style="stop-color:#7431af;stop-opacity:1;" offset="0.507812"/><stop style="stop-color:#7531b0;stop-opacity:1;" offset="0.515625"/><stop style="stop-color:#7630b1;stop-opacity:1;" offset="0.523437"/><stop style="stop-color:#7730b2;stop-opacity:1;" offset="0.53125"/><stop style="stop-color:#7830b3;stop-opacity:1;" offset="0.539062"/><stop style="stop-color:#782fb4;stop-opacity:1;" offset="0.546875"/><stop style="stop-color:#792fb5;stop-opacity:1;" offset="0.554687"/><stop style="stop-color:#7a2fb6;stop-opacity:1;" offset="0.5625"/><stop style="stop-color:#7b2fb7;stop-opacity:1;" offset="0.570312"/><stop style="stop-color:#7c2eb8;stop-opacity:1;" offset="0.578125"/><stop style="stop-color:#7d2eb9;stop-opacity:1;" offset="0.585937"/><stop style="stop-color:#7e2eba;stop-opacity:1;" offset="0.59375"/><stop style="stop-color:#7f2dbb;stop-opacity:1;" offset="0.601562"/><stop style="stop-color:#802dbb;stop-opacity:1;" offset="0.609375"/><stop style="stop-color:#812dbc;stop-opacity:1;" offset="0.617187"/><stop style="stop-color:#812dbd;stop-opacity:1;" offset="0.625"/><stop style="stop-color:#822cbe;stop-opacity:1;" offset="0.632812"/><stop style="stop-color:#832cbf;stop-opacity:1;" offset="0.640625"/><stop style="stop-color:#842cc0;stop-opacity:1;" offset="0.648437"/><stop style="stop-color:#852cc1;stop-opacity:1;" offset="0.65625"/><stop style="stop-color:#862bc2;stop-opacity:1;" offset="0.664062"/><stop style="stop-color:#872bc3;stop-opacity:1;" offset="0.671875"/><stop style="stop-color:#882bc4;stop-opacity:1;" offset="0.679687"/><stop style="stop-color:#892ac5;stop-opacity:1;" offset="0.6875"/><stop style="stop-color:#8a2ac6;stop-opacity:1;" offset="0.695312"/><stop style="stop-color:#8a2ac7;stop-opacity:1;" offset="0.703125"/><stop style="stop-color:#8b2ac7;stop-opacity:1;" offset="0.710937"/><stop style="stop-color:#8c29c8;stop-opacity:1;" offset="0.71875"/><stop style="stop-color:#8d29c9;stop-opacity:1;" offset="0.726562"/><stop style="stop-color:#8e29ca;stop-opacity:1;" offset="0.734375"/><stop style="stop-color:#8f28cb;stop-opacity:1;" offset="0.742187"/><stop style="stop-color:#9028cc;stop-opacity:1;" offset="0.75"/><stop style="stop-color:#9128cd;stop-opacity:1;" offset="0.757812"/><stop style="stop-color:#9228ce;stop-opacity:1;" offset="0.765625"/><stop style="stop-color:#9227cf;stop-opacity:1;" offset="0.773438"/><stop style="stop-color:#9327d0;stop-opacity:1;" offset="0.78125"/><stop style="stop-color:#9427d1;stop-opacity:1;" offset="0.789062"/><stop style="stop-color:#9526d2;stop-opacity:1;" offset="0.796875"/><stop style="stop-color:#9626d2;stop-opacity:1;" offset="0.804688"/><stop style="stop-color:#9726d3;stop-opacity:1;" offset="0.8125"/><stop style="stop-color:#9826d4;stop-opacity:1;" offset="0.820312"/><stop style="stop-color:#9925d5;stop-opacity:1;" offset="0.828125"/><stop style="stop-color:#9a25d6;stop-opacity:1;" offset="0.835938"/><stop style="stop-color:#9b25d7;stop-opacity:1;" offset="0.84375"/><stop style="stop-color:#9b24d8;stop-opacity:1;" offset="0.851562"/><stop style="stop-color:#9c24d9;stop-opacity:1;" offset="0.859375"/><stop style="stop-color:#9d24da;stop-opacity:1;" offset="0.867188"/><stop style="stop-color:#9e24db;stop-opacity:1;" offset="0.875"/><stop style="stop-color:#9f23dc;stop-opacity:1;" offset="0.882812"/><stop style="stop-color:#a023dd;stop-opacity:1;" offset="0.890625"/><stop style="stop-color:#a123de;stop-opacity:1;" offset="0.898437"/><stop style="stop-color:#a223de;stop-opacity:1;" offset="0.90625"/><stop style="stop-color:#a322df;stop-opacity:1;" offset="0.914062"/><stop style="stop-color:#a422e0;stop-opacity:1;" offset="0.921875"/><stop style="stop-color:#a422e1;stop-opacity:1;" offset="0.929687"/><stop style="stop-color:#a521e2;stop-opacity:1;" offset="0.9375"/><stop style="stop-color:#a621e3;stop-opacity:1;" offset="0.945312"/><stop style="stop-color:#a721e4;stop-opacity:1;" offset="0.953125"/><stop style="stop-color:#a821e5;stop-opacity:1;" offset="0.960937"/><stop style="stop-color:#a920e6;stop-opacity:1;" offset="0.96875"/><stop style="stop-color:#aa20e7;stop-opacity:1;" offset="0.976562"/><stop style="stop-color:#ab20e8;stop-opacity:1;" offset="0.984375"/><stop style="stop-color:#ac1fe9;stop-opacity:1;" offset="0.992187"/><stop style="stop-color:#ad1fea;stop-opacity:1;" offset="1"/></linearGradient></defs><g id="259c05f689"><rect x="0" width="900" y="0" height="374.999991" style="fill:#ffffff;fill-opacity:1;stroke:none;"/><rect x="0" width="900" y="0" height="374.999991" style="fill:#ffffff;fill-opacity:1;stroke:none;"/><g clip-rule="nonzero" clip-path="url(#00e9b9fac2)"><g clip-rule="nonzero" clip-path="url(#d4068f4b94)"><path style=" stroke:none;fill-rule:nonzero;fill:url(#c98f3ecd76);" d="M 325.152344 76.175781 L 325.152344 123.253906 L 371.339844 123.253906 L 371.339844 76.175781 Z M 325.152344 76.175781 "/></g></g><g clip-rule="nonzero" clip-path="url(#81544f07cc)"><g clip-rule="nonzero" clip-path="url(#490eda8fa2)"><path style=" stroke:none;fill-rule:nonzero;fill:url(#7de01e4e7f);" d="M 292.875 92.996094 L 292.875 139.925781 L 339.957031 139.925781 L 339.957031 92.996094 Z M 292.875 92.996094 "/></g></g><g style="fill:#373f68;fill-opacity:1;"><g transform="translate(72.543406, 239.624984)"><path style="stroke:none" d="M 24.59375 -38.40625 L 4.796875 -24 C 7.097656 -18.800781 10.5 -14.078125 15 -9.828125 C 19.5 -5.578125 24.820312 -2.226562 30.96875 0.21875 C 37.125 2.675781 43.800781 3.90625 51 3.90625 C 56.101562 3.90625 61.101562 3.175781 66 1.71875 C 70.894531 0.269531 75.269531 -1.875 79.125 -4.71875 C 82.976562 -7.570312 86.03125 -11.148438 88.28125 -15.453125 C 90.53125 -19.753906 91.65625 -24.703125 91.65625 -30.296875 C 91.65625 -34.492188 91.003906 -38.289062 89.703125 -41.6875 C 88.398438 -45.09375 86.546875 -48.117188 84.140625 -50.765625 C 81.742188 -53.421875 78.921875 -55.722656 75.671875 -57.671875 C 72.421875 -59.617188 68.847656 -61.296875 64.953125 -62.703125 C 60.453125 -64.296875 56.472656 -65.769531 53.015625 -67.125 C 49.566406 -68.476562 46.867188 -69.925781 44.921875 -71.46875 C 42.972656 -73.019531 42 -74.945312 42 -77.25 C 42 -79.25 42.847656 -80.847656 44.546875 -82.046875 C 46.242188 -83.242188 48.546875 -83.84375 51.453125 -83.84375 C 53.753906 -83.84375 56.003906 -83.394531 58.203125 -82.5 C 60.398438 -81.601562 62.472656 -80.328125 64.421875 -78.671875 C 66.367188 -77.023438 68.09375 -74.953125 69.59375 -72.453125 L 91.5 -84.59375 C 89.601562 -88.195312 86.90625 -91.773438 83.40625 -95.328125 C 79.90625 -98.878906 75.453125 -101.828125 70.046875 -104.171875 C 64.648438 -106.523438 58.25 -107.703125 50.84375 -107.703125 C 43.75 -107.703125 37.300781 -106.5 31.5 -104.09375 C 25.695312 -101.695312 21.046875 -98.222656 17.546875 -93.671875 C 14.046875 -89.117188 12.296875 -83.546875 12.296875 -76.953125 C 12.296875 -71.753906 13.269531 -67.253906 15.21875 -63.453125 C 17.175781 -59.648438 19.628906 -56.445312 22.578125 -53.84375 C 25.523438 -51.25 28.597656 -49.125 31.796875 -47.46875 C 34.992188 -45.820312 37.894531 -44.5 40.5 -43.5 C 45.800781 -41.5 49.925781 -39.796875 52.875 -38.390625 C 55.820312 -36.992188 57.894531 -35.617188 59.09375 -34.265625 C 60.300781 -32.921875 60.90625 -31.25 60.90625 -29.25 C 60.90625 -26.445312 59.851562 -24.320312 57.75 -22.875 C 55.644531 -21.425781 52.992188 -20.703125 49.796875 -20.703125 C 46.492188 -20.703125 43.289062 -21.398438 40.1875 -22.796875 C 37.09375 -24.203125 34.242188 -26.226562 31.640625 -28.875 C 29.046875 -31.519531 26.695312 -34.695312 24.59375 -38.40625 Z M 24.59375 -38.40625 "/></g></g><g style="fill:#373f68;fill-opacity:1;"><g transform="translate(175.735702, 239.624984)"><path style="stroke:none" d="M 35.40625 -27 L 35.40625 -69 L 8.25 -69 L 8.25 -24.296875 C 8.25 -16.097656 10.148438 -9.722656 13.953125 -5.171875 C 17.753906 -0.617188 24.15625 1.65625 33.15625 1.65625 C 38.351562 1.65625 42.675781 0.582031 46.125 -1.5625 C 49.570312 -3.71875 52.296875 -6.597656 54.296875 -10.203125 L 54.296875 0 L 80.25 0 L 80.25 -69 L 54.296875 -69 L 54.296875 -27 C 54.296875 -24.5 53.867188 -22.398438 53.015625 -20.703125 C 52.171875 -19.003906 51 -17.753906 49.5 -16.953125 C 48 -16.148438 46.148438 -15.75 43.953125 -15.75 C 40.648438 -15.75 38.398438 -16.722656 37.203125 -18.671875 C 36.003906 -20.617188 35.40625 -23.394531 35.40625 -27 Z M 35.40625 -27 "/></g></g><g style="fill:#373f68;fill-opacity:1;"><g transform="translate(270.228681, 239.624984)"><path style="stroke:none" d="M 6.15625 5.09375 C 6.851562 11.195312 8.597656 16.625 11.390625 21.375 C 14.191406 26.125 18.394531 29.796875 24 32.390625 C 29.601562 34.992188 37.003906 36.296875 46.203125 36.296875 C 53.597656 36.296875 60.21875 35.046875 66.0625 32.546875 C 71.914062 30.046875 76.59375 26.019531 80.09375 20.46875 C 83.59375 14.925781 85.34375 7.601562 85.34375 -1.5 L 85.34375 -69 L 60.59375 -69 L 60.59375 -1.5 C 60.59375 2.300781 59.914062 5.5 58.5625 8.09375 C 57.21875 10.695312 55.367188 12.671875 53.015625 14.015625 C 50.671875 15.367188 47.945312 16.046875 44.84375 16.046875 C 42.445312 16.046875 40.25 15.695312 38.25 15 C 36.25 14.300781 34.648438 13.148438 33.453125 11.546875 C 32.253906 9.953125 31.453125 7.800781 31.046875 5.09375 Z M 4.65625 -35.703125 C 4.65625 -27.898438 6.226562 -21.421875 9.375 -16.265625 C 12.519531 -11.117188 16.566406 -7.269531 21.515625 -4.71875 C 26.472656 -2.175781 31.648438 -0.90625 37.046875 -0.90625 C 42.847656 -0.90625 48 -2.253906 52.5 -4.953125 C 57 -7.648438 60.570312 -11.597656 63.21875 -16.796875 C 65.875 -21.992188 67.203125 -28.296875 67.203125 -35.703125 C 67.203125 -43.203125 65.875 -49.523438 63.21875 -54.671875 C 60.570312 -59.828125 57 -63.753906 52.5 -66.453125 C 48 -69.148438 42.847656 -70.5 37.046875 -70.5 C 31.648438 -70.5 26.472656 -69.222656 21.515625 -66.671875 C 16.566406 -64.117188 12.519531 -60.289062 9.375 -55.1875 C 6.226562 -50.09375 4.65625 -43.597656 4.65625 -35.703125 Z M 31.953125 -35.703125 C 31.953125 -38.796875 32.597656 -41.414062 33.890625 -43.5625 C 35.191406 -45.71875 36.941406 -47.34375 39.140625 -48.4375 C 41.347656 -49.539062 43.75 -50.09375 46.34375 -50.09375 C 48.050781 -50.09375 49.753906 -49.816406 51.453125 -49.265625 C 53.148438 -48.722656 54.695312 -47.847656 56.09375 -46.640625 C 57.5 -45.441406 58.597656 -43.941406 59.390625 -42.140625 C 60.191406 -40.347656 60.59375 -38.203125 60.59375 -35.703125 C 60.59375 -32.398438 59.894531 -29.695312 58.5 -27.59375 C 57.101562 -25.5 55.300781 -23.925781 53.09375 -22.875 C 50.894531 -21.820312 48.644531 -21.296875 46.34375 -21.296875 C 43.75 -21.296875 41.347656 -21.84375 39.140625 -22.9375 C 36.941406 -24.039062 35.191406 -25.691406 33.890625 -27.890625 C 32.597656 -30.097656 31.953125 -32.703125 31.953125 -35.703125 Z M 31.953125 -35.703125 "/></g></g><g style="fill:#373f68;fill-opacity:1;"><g transform="translate(369.521277, 239.624984)"><path style="stroke:none" d="M 6.15625 5.09375 C 6.851562 11.195312 8.597656 16.625 11.390625 21.375 C 14.191406 26.125 18.394531 29.796875 24 32.390625 C 29.601562 34.992188 37.003906 36.296875 46.203125 36.296875 C 53.597656 36.296875 60.21875 35.046875 66.0625 32.546875 C 71.914062 30.046875 76.59375 26.019531 80.09375 20.46875 C 83.59375 14.925781 85.34375 7.601562 85.34375 -1.5 L 85.34375 -69 L 60.59375 -69 L 60.59375 -1.5 C 60.59375 2.300781 59.914062 5.5 58.5625 8.09375 C 57.21875 10.695312 55.367188 12.671875 53.015625 14.015625 C 50.671875 15.367188 47.945312 16.046875 44.84375 16.046875 C 42.445312 16.046875 40.25 15.695312 38.25 15 C 36.25 14.300781 34.648438 13.148438 33.453125 11.546875 C 32.253906 9.953125 31.453125 7.800781 31.046875 5.09375 Z M 4.65625 -35.703125 C 4.65625 -27.898438 6.226562 -21.421875 9.375 -16.265625 C 12.519531 -11.117188 16.566406 -7.269531 21.515625 -4.71875 C 26.472656 -2.175781 31.648438 -0.90625 37.046875 -0.90625 C 42.847656 -0.90625 48 -2.253906 52.5 -4.953125 C 57 -7.648438 60.570312 -11.597656 63.21875 -16.796875 C 65.875 -21.992188 67.203125 -28.296875 67.203125 -35.703125 C 67.203125 -43.203125 65.875 -49.523438 63.21875 -54.671875 C 60.570312 -59.828125 57 -63.753906 52.5 -66.453125 C 48 -69.148438 42.847656 -70.5 37.046875 -70.5 C 31.648438 -70.5 26.472656 -69.222656 21.515625 -66.671875 C 16.566406 -64.117188 12.519531 -60.289062 9.375 -55.1875 C 6.226562 -50.09375 4.65625 -43.597656 4.65625 -35.703125 Z M 31.953125 -35.703125 C 31.953125 -38.796875 32.597656 -41.414062 33.890625 -43.5625 C 35.191406 -45.71875 36.941406 -47.34375 39.140625 -48.4375 C 41.347656 -49.539062 43.75 -50.09375 46.34375 -50.09375 C 48.050781 -50.09375 49.753906 -49.816406 51.453125 -49.265625 C 53.148438 -48.722656 54.695312 -47.847656 56.09375 -46.640625 C 57.5 -45.441406 58.597656 -43.941406 59.390625 -42.140625 C 60.191406 -40.347656 60.59375 -38.203125 60.59375 -35.703125 C 60.59375 -32.398438 59.894531 -29.695312 58.5 -27.59375 C 57.101562 -25.5 55.300781 -23.925781 53.09375 -22.875 C 50.894531 -21.820312 48.644531 -21.296875 46.34375 -21.296875 C 43.75 -21.296875 41.347656 -21.84375 39.140625 -22.9375 C 36.941406 -24.039062 35.191406 -25.691406 33.890625 -27.890625 C 32.597656 -30.097656 31.953125 -32.703125 31.953125 -35.703125 Z M 31.953125 -35.703125 "/></g></g><g style="fill:#373f68;fill-opacity:1;"><g transform="translate(468.813919, 239.624984)"><path style="stroke:none" d="M 45.75 1.5 C 54.945312 1.5 62.71875 -0.25 69.0625 -3.75 C 75.414062 -7.25 80.445312 -12.550781 84.15625 -19.65625 L 60.75 -24.296875 C 59.25 -21.703125 57.171875 -19.726562 54.515625 -18.375 C 51.867188 -17.019531 48.644531 -16.34375 44.84375 -16.34375 C 41.75 -16.34375 39.148438 -17.066406 37.046875 -18.515625 C 34.953125 -19.972656 33.351562 -22.050781 32.25 -24.75 C 31.144531 -27.445312 30.644531 -30.75 30.75 -34.65625 C 30.75 -39.050781 31.25 -42.671875 32.25 -45.515625 C 33.25 -48.367188 34.75 -50.492188 36.75 -51.890625 C 38.75 -53.296875 41.25 -54 44.25 -54 C 46.644531 -54 48.71875 -53.472656 50.46875 -52.421875 C 52.21875 -51.367188 53.566406 -49.867188 54.515625 -47.921875 C 55.472656 -45.972656 55.953125 -43.597656 55.953125 -40.796875 C 55.953125 -40.097656 55.75 -39.25 55.34375 -38.25 C 54.945312 -37.25 54.5 -36.347656 54 -35.546875 L 59.546875 -42.453125 L 18.90625 -42.453125 L 18.90625 -29.09375 L 83.25 -29.09375 C 83.351562 -30 83.425781 -31.023438 83.46875 -32.171875 C 83.519531 -33.328125 83.546875 -34.503906 83.546875 -35.703125 C 83.546875 -43.203125 82.046875 -49.523438 79.046875 -54.671875 C 76.046875 -59.828125 71.695312 -63.753906 66 -66.453125 C 60.300781 -69.148438 53.25 -70.5 44.84375 -70.5 C 36.445312 -70.5 29.25 -69.046875 23.25 -66.140625 C 17.25 -63.242188 12.648438 -59.117188 9.453125 -53.765625 C 6.253906 -48.421875 4.65625 -42 4.65625 -34.5 C 4.65625 -27.101562 6.300781 -20.726562 9.59375 -15.375 C 12.894531 -10.019531 17.617188 -5.867188 23.765625 -2.921875 C 29.921875 0.0234375 37.25 1.5 45.75 1.5 Z M 45.75 1.5 "/></g></g><g style="fill:#373f68;fill-opacity:1;"><g transform="translate(563.456872, 239.624984)"><path style="stroke:none" d="M 12.15625 -26.25 L 2.703125 -8.546875 C 6.296875 -6.242188 10.039062 -4.191406 13.9375 -2.390625 C 17.84375 -0.597656 22.019531 0.796875 26.46875 1.796875 C 30.925781 2.796875 35.65625 3.296875 40.65625 3.296875 C 49.25 3.296875 55.867188 1.445312 60.515625 -2.25 C 65.171875 -5.945312 67.5 -11.695312 67.5 -19.5 C 67.5 -23.800781 66.570312 -27.25 64.71875 -29.84375 C 62.875 -32.445312 60.472656 -34.570312 57.515625 -36.21875 C 54.566406 -37.875 51.34375 -39.351562 47.84375 -40.65625 C 44.144531 -42.050781 41.09375 -43.148438 38.6875 -43.953125 C 36.289062 -44.753906 34.492188 -45.578125 33.296875 -46.421875 C 32.097656 -47.273438 31.5 -48.398438 31.5 -49.796875 C 31.5 -50.796875 31.921875 -51.644531 32.765625 -52.34375 C 33.617188 -53.050781 35 -53.40625 36.90625 -53.40625 C 39.90625 -53.40625 43.378906 -52.53125 47.328125 -50.78125 C 51.273438 -49.03125 54.847656 -46.753906 58.046875 -43.953125 L 65.703125 -61.203125 C 62.597656 -63.003906 59.445312 -64.578125 56.25 -65.921875 C 53.050781 -67.273438 49.675781 -68.375 46.125 -69.21875 C 42.570312 -70.070312 38.75 -70.5 34.65625 -70.5 C 29.351562 -70.5 24.703125 -69.722656 20.703125 -68.171875 C 16.703125 -66.617188 13.550781 -64.367188 11.25 -61.421875 C 8.945312 -58.472656 7.796875 -54.847656 7.796875 -50.546875 C 7.796875 -46.046875 8.71875 -42.367188 10.5625 -39.515625 C 12.414062 -36.671875 14.84375 -34.421875 17.84375 -32.765625 C 20.84375 -31.117188 23.992188 -29.75 27.296875 -28.65625 C 31.296875 -27.351562 34.320312 -26.25 36.375 -25.34375 C 38.425781 -24.445312 39.828125 -23.570312 40.578125 -22.71875 C 41.328125 -21.875 41.703125 -20.851562 41.703125 -19.65625 C 41.703125 -18.25 41.25 -17.144531 40.34375 -16.34375 C 39.445312 -15.550781 38.050781 -15.15625 36.15625 -15.15625 C 34.945312 -15.15625 33.242188 -15.40625 31.046875 -15.90625 C 28.847656 -16.40625 26.195312 -17.453125 23.09375 -19.046875 C 20 -20.648438 16.351562 -23.050781 12.15625 -26.25 Z M 12.15625 -26.25 "/></g></g><g style="fill:#373f68;fill-opacity:1;"><g transform="translate(640.251255, 239.624984)"><path style="stroke:none" d="M 0.75 -69 L 0.75 -48 L 50.40625 -48 L 50.40625 -69 Z M 13.203125 -93 L 13.203125 0 L 37.953125 0 L 37.953125 -93 Z M 13.203125 -93 "/></g></g><g style="fill:#373f68;fill-opacity:1;"><g transform="translate(697.397186, 239.624984)"><path style="stroke:none" d="M 8.25 -117 L 8.25 0 L 34.203125 0 L 34.203125 -117 Z M 8.25 -117 "/></g></g><g style="fill:#373f68;fill-opacity:1;"><g transform="translate(745.693768, 239.624984)"><path style="stroke:none" d="M 83.546875 -69 L 57.296875 -69 L 35.09375 -13.34375 L 48.75 -13.203125 L 26.40625 -69 L -1.796875 -69 L 29.09375 -4.34375 L 12.90625 33 L 38.546875 33 Z M 83.546875 -69 "/></g></g></g></svg>