<svg xmlns="http://www.w3.org/2000/svg" xmlns:xlink="http://www.w3.org/1999/xlink" width="500" zoomAndPan="magnify" viewBox="0 0 375 104.999996" height="140" preserveAspectRatio="xMidYMid meet" version="1.0"><defs><g/><clipPath id="0081287e9e"><path d="M 0.941406 0.5 L 85.078125 0.5 L 85.078125 84.285156 L 0.941406 84.285156 Z M 0.941406 0.5 " clip-rule="nonzero"/></clipPath><clipPath id="145b722a1f"><path d="M 42.996094 0.5 C 19.769531 0.5 0.941406 19.257812 0.941406 42.394531 C 0.941406 65.53125 19.769531 84.285156 42.996094 84.285156 C 66.222656 84.285156 85.054688 65.53125 85.054688 42.394531 C 85.054688 19.257812 66.222656 0.5 42.996094 0.5 Z M 42.996094 0.5 " clip-rule="nonzero"/></clipPath><clipPath id="fdeab253e9"><path d="M 0.941406 0.5 L 85.078125 0.5 L 85.078125 84.285156 L 0.941406 84.285156 Z M 0.941406 0.5 " clip-rule="nonzero"/></clipPath><clipPath id="7df80e118b"><path d="M 42.996094 0.5 C 19.769531 0.5 0.941406 19.257812 0.941406 42.394531 C 0.941406 65.53125 19.769531 84.285156 42.996094 84.285156 C 66.222656 84.285156 85.054688 65.53125 85.054688 42.394531 C 85.054688 19.257812 66.222656 0.5 42.996094 0.5 Z M 42.996094 0.5 " clip-rule="nonzero"/></clipPath><clipPath id="c3c7f0116c"><rect x="0" width="86" y="0" height="85"/></clipPath><clipPath id="297f9ddaad"><path d="M 10.953125 10.308594 L 75.097656 10.308594 L 75.097656 74.453125 L 10.953125 74.453125 Z M 10.953125 10.308594 " clip-rule="nonzero"/></clipPath><clipPath id="a0a8fac7ce"><rect x="0" width="86" y="0" height="85"/></clipPath></defs><g fill="#373f68" fill-opacity="1"><g transform="translate(102.37823, 69.360466)"><g><path d="M 20.25 -27.734375 L 18.90625 -26.125 C 18.351562 -26.59375 17.566406 -27.019531 16.546875 -27.40625 C 15.523438 -27.789062 14.289062 -27.984375 12.84375 -27.984375 C 10.925781 -27.984375 9.265625 -27.707031 7.859375 -27.15625 C 6.453125 -26.601562 5.300781 -25.878906 4.40625 -24.984375 C 3.507812 -24.085938 2.835938 -23.0625 2.390625 -21.90625 C 1.941406 -20.757812 1.71875 -19.59375 1.71875 -18.40625 C 1.71875 -17.125 1.941406 -15.90625 2.390625 -14.75 C 2.835938 -13.601562 3.488281 -12.601562 4.34375 -11.75 C 5.195312 -10.90625 6.238281 -10.238281 7.46875 -9.75 C 8.707031 -9.257812 10.132812 -9.015625 11.75 -9.015625 C 13.195312 -9.015625 14.359375 -8.875 15.234375 -8.59375 C 16.109375 -8.3125 16.769531 -7.957031 17.21875 -7.53125 C 17.664062 -7.113281 17.953125 -6.644531 18.078125 -6.125 C 18.203125 -5.613281 18.265625 -5.125 18.265625 -4.65625 C 18.265625 -3.59375 17.816406 -2.613281 16.921875 -1.71875 C 16.035156 -0.832031 14.523438 -0.390625 12.390625 -0.390625 C 10.085938 -0.390625 8.160156 -0.972656 6.609375 -2.140625 C 5.054688 -3.304688 3.851562 -5.273438 3 -8.046875 C 2.789062 -8.816406 2.535156 -9.203125 2.234375 -9.203125 C 1.890625 -9.203125 1.71875 -8.90625 1.71875 -8.3125 L 1.71875 -0.0625 C 1.71875 0.28125 1.847656 0.453125 2.109375 0.453125 C 2.273438 0.453125 2.421875 0.382812 2.546875 0.25 C 2.679688 0.125 2.789062 -0.0195312 2.875 -0.1875 L 4.15625 -1.984375 C 4.957031 -1.390625 6.0625 -0.78125 7.46875 -0.15625 C 8.875 0.457031 10.515625 0.765625 12.390625 0.765625 C 14.265625 0.765625 15.882812 0.46875 17.25 -0.125 C 18.613281 -0.71875 19.742188 -1.503906 20.640625 -2.484375 C 21.535156 -3.472656 22.203125 -4.582031 22.640625 -5.8125 C 23.085938 -7.050781 23.3125 -8.304688 23.3125 -9.578125 C 23.3125 -10.816406 23.160156 -11.988281 22.859375 -13.09375 C 22.566406 -14.207031 22.046875 -15.1875 21.296875 -16.03125 C 20.554688 -16.882812 19.554688 -17.554688 18.296875 -18.046875 C 17.046875 -18.535156 15.460938 -18.78125 13.546875 -18.78125 C 11.242188 -18.78125 9.601562 -19.117188 8.625 -19.796875 C 7.644531 -20.484375 7.15625 -21.445312 7.15625 -22.6875 C 7.15625 -23.707031 7.613281 -24.648438 8.53125 -25.515625 C 9.445312 -26.390625 10.882812 -26.828125 12.84375 -26.828125 C 13.5625 -26.828125 14.304688 -26.695312 15.078125 -26.4375 C 15.847656 -26.1875 16.570312 -25.828125 17.25 -25.359375 C 17.925781 -24.890625 18.507812 -24.328125 19 -23.671875 C 19.5 -23.015625 19.851562 -22.257812 20.0625 -21.40625 C 20.1875 -20.757812 20.398438 -20.4375 20.703125 -20.4375 C 20.992188 -20.4375 21.140625 -20.800781 21.140625 -21.53125 L 21.140625 -27.53125 C 21.140625 -27.914062 21.035156 -28.109375 20.828125 -28.109375 C 20.617188 -28.109375 20.488281 -28.066406 20.4375 -27.984375 C 20.394531 -27.898438 20.332031 -27.816406 20.25 -27.734375 Z M 20.25 -27.734375 "/></g></g></g><g fill="#373f68" fill-opacity="1"><g transform="translate(128.892952, 69.360466)"><g><path d="M 5.109375 -26.265625 L 5.109375 -9.640625 C 5.109375 -2.703125 8.300781 0.765625 14.6875 0.765625 C 16.945312 0.765625 18.703125 0.253906 19.953125 -0.765625 C 21.210938 -1.785156 22.164062 -2.957031 22.8125 -4.28125 L 22.8125 0 L 35.90625 0 L 35.90625 -1.015625 L 32.515625 -1.015625 L 32.515625 -28.9375 L 19.546875 -26.765625 L 19.546875 -25.6875 L 22.9375 -26.265625 L 22.9375 -9.453125 C 22.9375 -8.734375 22.785156 -7.914062 22.484375 -7 C 22.191406 -6.082031 21.800781 -5.21875 21.3125 -4.40625 C 20.820312 -3.59375 20.242188 -2.910156 19.578125 -2.359375 C 18.921875 -1.804688 18.226562 -1.53125 17.5 -1.53125 C 16.4375 -1.53125 15.703125 -1.890625 15.296875 -2.609375 C 14.890625 -3.335938 14.6875 -4.640625 14.6875 -6.515625 L 14.6875 -28.9375 L 1.65625 -26.765625 L 1.65625 -25.6875 Z M 5.109375 -26.265625 "/></g></g></g><g fill="#373f68" fill-opacity="1"><g transform="translate(167.419095, 69.360466)"><g><path d="M 11.5625 -15.78125 L 11.5625 -21.984375 C 11.5625 -23.722656 11.71875 -24.960938 12.03125 -25.703125 C 12.351562 -26.453125 13.113281 -26.828125 14.3125 -26.828125 C 15.5 -26.828125 16.253906 -26.453125 16.578125 -25.703125 C 16.898438 -24.960938 17.0625 -23.722656 17.0625 -21.984375 L 17.0625 -15.78125 C 17.0625 -14.25 16.898438 -13.148438 16.578125 -12.484375 C 16.253906 -11.828125 15.5 -11.5 14.3125 -11.5 C 13.113281 -11.5 12.351562 -11.835938 12.03125 -12.515625 C 11.71875 -13.203125 11.5625 -14.289062 11.5625 -15.78125 Z M 11.4375 -10.671875 C 11.863281 -10.585938 12.34375 -10.507812 12.875 -10.4375 C 13.40625 -10.375 13.863281 -10.34375 14.25 -10.34375 C 15.738281 -10.34375 17.164062 -10.546875 18.53125 -10.953125 C 19.894531 -11.359375 21.109375 -11.941406 22.171875 -12.703125 C 23.234375 -13.472656 24.070312 -14.398438 24.6875 -15.484375 C 25.3125 -16.578125 25.625 -17.804688 25.625 -19.171875 C 25.625 -21.085938 25.3125 -22.535156 24.6875 -23.515625 C 24.070312 -24.492188 23.53125 -25.175781 23.0625 -25.5625 C 23.28125 -25.894531 23.625 -26.273438 24.09375 -26.703125 C 24.5625 -27.128906 25.09375 -27.492188 25.6875 -27.796875 C 25.300781 -27.328125 25.109375 -26.859375 25.109375 -26.390625 C 25.109375 -25.878906 25.34375 -25.429688 25.8125 -25.046875 C 26.28125 -24.660156 26.941406 -24.46875 27.796875 -24.46875 C 28.554688 -24.46875 29.117188 -24.679688 29.484375 -25.109375 C 29.847656 -25.535156 30.03125 -26.003906 30.03125 -26.515625 C 30.03125 -27.109375 29.859375 -27.648438 29.515625 -28.140625 C 29.171875 -28.628906 28.703125 -28.960938 28.109375 -29.140625 C 27.640625 -29.265625 27.191406 -29.328125 26.765625 -29.328125 C 25.785156 -29.328125 24.929688 -29.050781 24.203125 -28.5 C 23.484375 -27.945312 22.722656 -27.242188 21.921875 -26.390625 C 21.234375 -26.773438 20.332031 -27.132812 19.21875 -27.46875 C 18.113281 -27.8125 16.476562 -27.984375 14.3125 -27.984375 C 12.175781 -27.984375 10.363281 -27.738281 8.875 -27.25 C 7.382812 -26.757812 6.179688 -26.109375 5.265625 -25.296875 C 4.347656 -24.492188 3.675781 -23.554688 3.25 -22.484375 C 2.832031 -21.421875 2.625 -20.316406 2.625 -19.171875 C 2.625 -17.929688 2.859375 -16.875 3.328125 -16 C 3.796875 -15.125 4.359375 -14.378906 5.015625 -13.765625 C 5.671875 -13.148438 6.382812 -12.640625 7.15625 -12.234375 C 7.925781 -11.828125 8.628906 -11.476562 9.265625 -11.1875 C 8.453125 -11.050781 7.585938 -10.851562 6.671875 -10.59375 C 5.753906 -10.34375 4.910156 -9.941406 4.140625 -9.390625 C 3.378906 -8.835938 2.742188 -8.113281 2.234375 -7.21875 C 1.722656 -6.320312 1.46875 -5.148438 1.46875 -3.703125 C 1.46875 -2.378906 1.671875 -1.3125 2.078125 -0.5 C 2.484375 0.300781 2.972656 0.9375 3.546875 1.40625 C 4.117188 1.875 4.742188 2.210938 5.421875 2.421875 C 6.109375 2.640625 6.707031 2.8125 7.21875 2.9375 C 6.625 3.101562 5.960938 3.347656 5.234375 3.671875 C 4.515625 3.992188 3.851562 4.410156 3.25 4.921875 C 2.65625 5.429688 2.15625 6.078125 1.75 6.859375 C 1.351562 7.648438 1.15625 8.625 1.15625 9.78125 C 1.15625 10.71875 1.398438 11.597656 1.890625 12.421875 C 2.378906 13.253906 3.164062 13.96875 4.25 14.5625 C 5.332031 15.164062 6.734375 15.644531 8.453125 16 C 10.179688 16.363281 12.257812 16.546875 14.6875 16.546875 C 16.5625 16.546875 18.285156 16.300781 19.859375 15.8125 C 21.441406 15.320312 22.796875 14.640625 23.921875 13.765625 C 25.054688 12.890625 25.929688 11.84375 26.546875 10.625 C 27.160156 9.414062 27.46875 8.066406 27.46875 6.578125 C 27.46875 4.367188 27.367188 2.453125 27.171875 0.828125 C 26.984375 -0.785156 26.453125 -2.132812 25.578125 -3.21875 C 24.710938 -4.3125 23.363281 -5.125 21.53125 -5.65625 C 19.695312 -6.1875 17.160156 -6.453125 13.921875 -6.453125 L 9.90625 -6.453125 C 8.96875 -6.453125 8.222656 -6.472656 7.671875 -6.515625 C 7.117188 -6.554688 6.703125 -6.640625 6.421875 -6.765625 C 6.140625 -6.898438 5.957031 -7.050781 5.875 -7.21875 C 5.789062 -7.382812 5.75 -7.597656 5.75 -7.859375 C 5.75 -8.285156 5.882812 -8.644531 6.15625 -8.9375 C 6.4375 -9.238281 6.832031 -9.484375 7.34375 -9.671875 C 7.851562 -9.867188 8.457031 -10.039062 9.15625 -10.1875 C 9.863281 -10.34375 10.625 -10.503906 11.4375 -10.671875 Z M 25.296875 8.375 C 25.296875 9.21875 25.039062 10.054688 24.53125 10.890625 C 24.019531 11.722656 23.304688 12.476562 22.390625 13.15625 C 21.472656 13.84375 20.351562 14.382812 19.03125 14.78125 C 17.71875 15.1875 16.269531 15.390625 14.6875 15.390625 C 12.863281 15.390625 11.320312 15.195312 10.0625 14.8125 C 8.800781 14.4375 7.785156 13.945312 7.015625 13.34375 C 6.253906 12.75 5.703125 12.054688 5.359375 11.265625 C 5.023438 10.484375 4.859375 9.6875 4.859375 8.875 C 4.859375 7.519531 5.25 6.265625 6.03125 5.109375 C 6.820312 3.960938 7.816406 3.21875 9.015625 2.875 L 14.6875 2.875 C 17.164062 2.875 19.117188 3.085938 20.546875 3.515625 C 21.972656 3.941406 23.035156 4.441406 23.734375 5.015625 C 24.441406 5.585938 24.878906 6.179688 25.046875 6.796875 C 25.210938 7.421875 25.296875 7.945312 25.296875 8.375 Z M 25.296875 8.375 "/></g></g></g><g fill="#373f68" fill-opacity="1"><g transform="translate(199.939528, 69.360466)"><g><path d="M 11.5625 -15.78125 L 11.5625 -21.984375 C 11.5625 -23.722656 11.71875 -24.960938 12.03125 -25.703125 C 12.351562 -26.453125 13.113281 -26.828125 14.3125 -26.828125 C 15.5 -26.828125 16.253906 -26.453125 16.578125 -25.703125 C 16.898438 -24.960938 17.0625 -23.722656 17.0625 -21.984375 L 17.0625 -15.78125 C 17.0625 -14.25 16.898438 -13.148438 16.578125 -12.484375 C 16.253906 -11.828125 15.5 -11.5 14.3125 -11.5 C 13.113281 -11.5 12.351562 -11.835938 12.03125 -12.515625 C 11.71875 -13.203125 11.5625 -14.289062 11.5625 -15.78125 Z M 11.4375 -10.671875 C 11.863281 -10.585938 12.34375 -10.507812 12.875 -10.4375 C 13.40625 -10.375 13.863281 -10.34375 14.25 -10.34375 C 15.738281 -10.34375 17.164062 -10.546875 18.53125 -10.953125 C 19.894531 -11.359375 21.109375 -11.941406 22.171875 -12.703125 C 23.234375 -13.472656 24.070312 -14.398438 24.6875 -15.484375 C 25.3125 -16.578125 25.625 -17.804688 25.625 -19.171875 C 25.625 -21.085938 25.3125 -22.535156 24.6875 -23.515625 C 24.070312 -24.492188 23.53125 -25.175781 23.0625 -25.5625 C 23.28125 -25.894531 23.625 -26.273438 24.09375 -26.703125 C 24.5625 -27.128906 25.09375 -27.492188 25.6875 -27.796875 C 25.300781 -27.328125 25.109375 -26.859375 25.109375 -26.390625 C 25.109375 -25.878906 25.34375 -25.429688 25.8125 -25.046875 C 26.28125 -24.660156 26.941406 -24.46875 27.796875 -24.46875 C 28.554688 -24.46875 29.117188 -24.679688 29.484375 -25.109375 C 29.847656 -25.535156 30.03125 -26.003906 30.03125 -26.515625 C 30.03125 -27.109375 29.859375 -27.648438 29.515625 -28.140625 C 29.171875 -28.628906 28.703125 -28.960938 28.109375 -29.140625 C 27.640625 -29.265625 27.191406 -29.328125 26.765625 -29.328125 C 25.785156 -29.328125 24.929688 -29.050781 24.203125 -28.5 C 23.484375 -27.945312 22.722656 -27.242188 21.921875 -26.390625 C 21.234375 -26.773438 20.332031 -27.132812 19.21875 -27.46875 C 18.113281 -27.8125 16.476562 -27.984375 14.3125 -27.984375 C 12.175781 -27.984375 10.363281 -27.738281 8.875 -27.25 C 7.382812 -26.757812 6.179688 -26.109375 5.265625 -25.296875 C 4.347656 -24.492188 3.675781 -23.554688 3.25 -22.484375 C 2.832031 -21.421875 2.625 -20.316406 2.625 -19.171875 C 2.625 -17.929688 2.859375 -16.875 3.328125 -16 C 3.796875 -15.125 4.359375 -14.378906 5.015625 -13.765625 C 5.671875 -13.148438 6.382812 -12.640625 7.15625 -12.234375 C 7.925781 -11.828125 8.628906 -11.476562 9.265625 -11.1875 C 8.453125 -11.050781 7.585938 -10.851562 6.671875 -10.59375 C 5.753906 -10.34375 4.910156 -9.941406 4.140625 -9.390625 C 3.378906 -8.835938 2.742188 -8.113281 2.234375 -7.21875 C 1.722656 -6.320312 1.46875 -5.148438 1.46875 -3.703125 C 1.46875 -2.378906 1.671875 -1.3125 2.078125 -0.5 C 2.484375 0.300781 2.972656 0.9375 3.546875 1.40625 C 4.117188 1.875 4.742188 2.210938 5.421875 2.421875 C 6.109375 2.640625 6.707031 2.8125 7.21875 2.9375 C 6.625 3.101562 5.960938 3.347656 5.234375 3.671875 C 4.515625 3.992188 3.851562 4.410156 3.25 4.921875 C 2.65625 5.429688 2.15625 6.078125 1.75 6.859375 C 1.351562 7.648438 1.15625 8.625 1.15625 9.78125 C 1.15625 10.71875 1.398438 11.597656 1.890625 12.421875 C 2.378906 13.253906 3.164062 13.96875 4.25 14.5625 C 5.332031 15.164062 6.734375 15.644531 8.453125 16 C 10.179688 16.363281 12.257812 16.546875 14.6875 16.546875 C 16.5625 16.546875 18.285156 16.300781 19.859375 15.8125 C 21.441406 15.320312 22.796875 14.640625 23.921875 13.765625 C 25.054688 12.890625 25.929688 11.84375 26.546875 10.625 C 27.160156 9.414062 27.46875 8.066406 27.46875 6.578125 C 27.46875 4.367188 27.367188 2.453125 27.171875 0.828125 C 26.984375 -0.785156 26.453125 -2.132812 25.578125 -3.21875 C 24.710938 -4.3125 23.363281 -5.125 21.53125 -5.65625 C 19.695312 -6.1875 17.160156 -6.453125 13.921875 -6.453125 L 9.90625 -6.453125 C 8.96875 -6.453125 8.222656 -6.472656 7.671875 -6.515625 C 7.117188 -6.554688 6.703125 -6.640625 6.421875 -6.765625 C 6.140625 -6.898438 5.957031 -7.050781 5.875 -7.21875 C 5.789062 -7.382812 5.75 -7.597656 5.75 -7.859375 C 5.75 -8.285156 5.882812 -8.644531 6.15625 -8.9375 C 6.4375 -9.238281 6.832031 -9.484375 7.34375 -9.671875 C 7.851562 -9.867188 8.457031 -10.039062 9.15625 -10.1875 C 9.863281 -10.34375 10.625 -10.503906 11.4375 -10.671875 Z M 25.296875 8.375 C 25.296875 9.21875 25.039062 10.054688 24.53125 10.890625 C 24.019531 11.722656 23.304688 12.476562 22.390625 13.15625 C 21.472656 13.84375 20.351562 14.382812 19.03125 14.78125 C 17.71875 15.1875 16.269531 15.390625 14.6875 15.390625 C 12.863281 15.390625 11.320312 15.195312 10.0625 14.8125 C 8.800781 14.4375 7.785156 13.945312 7.015625 13.34375 C 6.253906 12.75 5.703125 12.054688 5.359375 11.265625 C 5.023438 10.484375 4.859375 9.6875 4.859375 8.875 C 4.859375 7.519531 5.25 6.265625 6.03125 5.109375 C 6.820312 3.960938 7.816406 3.21875 9.015625 2.875 L 14.6875 2.875 C 17.164062 2.875 19.117188 3.085938 20.546875 3.515625 C 21.972656 3.941406 23.035156 4.441406 23.734375 5.015625 C 24.441406 5.585938 24.878906 6.179688 25.046875 6.796875 C 25.210938 7.421875 25.296875 7.945312 25.296875 8.375 Z M 25.296875 8.375 "/></g></g></g><g fill="#373f68" fill-opacity="1"><g transform="translate(232.45996, 69.360466)"><g><path d="M 29.96875 -15.78125 C 29.789062 -16.925781 29.4375 -18.203125 28.90625 -19.609375 C 28.375 -21.015625 27.566406 -22.332031 26.484375 -23.5625 C 25.398438 -24.800781 23.960938 -25.847656 22.171875 -26.703125 C 20.378906 -27.554688 18.117188 -27.984375 15.390625 -27.984375 C 12.960938 -27.984375 10.84375 -27.566406 9.03125 -26.734375 C 7.226562 -25.910156 5.71875 -24.828125 4.5 -23.484375 C 3.289062 -22.140625 2.382812 -20.601562 1.78125 -18.875 C 1.1875 -17.15625 0.890625 -15.398438 0.890625 -13.609375 C 0.890625 -11.816406 1.1875 -10.054688 1.78125 -8.328125 C 2.382812 -6.609375 3.289062 -5.078125 4.5 -3.734375 C 5.71875 -2.390625 7.226562 -1.300781 9.03125 -0.46875 C 10.84375 0.351562 12.960938 0.765625 15.390625 0.765625 C 17.097656 0.765625 18.664062 0.539062 20.09375 0.09375 C 21.519531 -0.351562 22.796875 -0.957031 23.921875 -1.71875 C 25.054688 -2.488281 26.015625 -3.375 26.796875 -4.375 C 27.585938 -5.375 28.195312 -6.429688 28.625 -7.546875 C 28.75 -7.835938 28.8125 -8.113281 28.8125 -8.375 C 28.8125 -8.800781 28.664062 -9.015625 28.375 -9.015625 C 28.113281 -9.015625 27.914062 -8.925781 27.78125 -8.75 C 27.65625 -8.582031 27.488281 -8.304688 27.28125 -7.921875 C 26.8125 -6.984375 26.222656 -6.078125 25.515625 -5.203125 C 24.816406 -4.328125 23.976562 -3.550781 23 -2.875 C 22.019531 -2.195312 20.898438 -1.65625 19.640625 -1.25 C 18.390625 -0.84375 16.972656 -0.640625 15.390625 -0.640625 C 14.753906 -0.640625 14.179688 -0.722656 13.671875 -0.890625 C 13.160156 -1.066406 12.722656 -1.390625 12.359375 -1.859375 C 11.992188 -2.328125 11.71875 -2.972656 11.53125 -3.796875 C 11.34375 -4.628906 11.25 -5.6875 11.25 -6.96875 L 11.25 -15.78125 Z M 11.25 -21.71875 C 11.25 -25.125 12.609375 -26.828125 15.328125 -26.828125 C 17.972656 -26.828125 19.296875 -25.125 19.296875 -21.71875 L 19.296875 -17 L 11.25 -17 Z M 11.25 -21.71875 "/></g></g></g><g fill="#373f68" fill-opacity="1"><g transform="translate(264.916501, 69.360466)"><g><path d="M 20.25 -27.734375 L 18.90625 -26.125 C 18.351562 -26.59375 17.566406 -27.019531 16.546875 -27.40625 C 15.523438 -27.789062 14.289062 -27.984375 12.84375 -27.984375 C 10.925781 -27.984375 9.265625 -27.707031 7.859375 -27.15625 C 6.453125 -26.601562 5.300781 -25.878906 4.40625 -24.984375 C 3.507812 -24.085938 2.835938 -23.0625 2.390625 -21.90625 C 1.941406 -20.757812 1.71875 -19.59375 1.71875 -18.40625 C 1.71875 -17.125 1.941406 -15.90625 2.390625 -14.75 C 2.835938 -13.601562 3.488281 -12.601562 4.34375 -11.75 C 5.195312 -10.90625 6.238281 -10.238281 7.46875 -9.75 C 8.707031 -9.257812 10.132812 -9.015625 11.75 -9.015625 C 13.195312 -9.015625 14.359375 -8.875 15.234375 -8.59375 C 16.109375 -8.3125 16.769531 -7.957031 17.21875 -7.53125 C 17.664062 -7.113281 17.953125 -6.644531 18.078125 -6.125 C 18.203125 -5.613281 18.265625 -5.125 18.265625 -4.65625 C 18.265625 -3.59375 17.816406 -2.613281 16.921875 -1.71875 C 16.035156 -0.832031 14.523438 -0.390625 12.390625 -0.390625 C 10.085938 -0.390625 8.160156 -0.972656 6.609375 -2.140625 C 5.054688 -3.304688 3.851562 -5.273438 3 -8.046875 C 2.789062 -8.816406 2.535156 -9.203125 2.234375 -9.203125 C 1.890625 -9.203125 1.71875 -8.90625 1.71875 -8.3125 L 1.71875 -0.0625 C 1.71875 0.28125 1.847656 0.453125 2.109375 0.453125 C 2.273438 0.453125 2.421875 0.382812 2.546875 0.25 C 2.679688 0.125 2.789062 -0.0195312 2.875 -0.1875 L 4.15625 -1.984375 C 4.957031 -1.390625 6.0625 -0.78125 7.46875 -0.15625 C 8.875 0.457031 10.515625 0.765625 12.390625 0.765625 C 14.265625 0.765625 15.882812 0.46875 17.25 -0.125 C 18.613281 -0.71875 19.742188 -1.503906 20.640625 -2.484375 C 21.535156 -3.472656 22.203125 -4.582031 22.640625 -5.8125 C 23.085938 -7.050781 23.3125 -8.304688 23.3125 -9.578125 C 23.3125 -10.816406 23.160156 -11.988281 22.859375 -13.09375 C 22.566406 -14.207031 22.046875 -15.1875 21.296875 -16.03125 C 20.554688 -16.882812 19.554688 -17.554688 18.296875 -18.046875 C 17.046875 -18.535156 15.460938 -18.78125 13.546875 -18.78125 C 11.242188 -18.78125 9.601562 -19.117188 8.625 -19.796875 C 7.644531 -20.484375 7.15625 -21.445312 7.15625 -22.6875 C 7.15625 -23.707031 7.613281 -24.648438 8.53125 -25.515625 C 9.445312 -26.390625 10.882812 -26.828125 12.84375 -26.828125 C 13.5625 -26.828125 14.304688 -26.695312 15.078125 -26.4375 C 15.847656 -26.1875 16.570312 -25.828125 17.25 -25.359375 C 17.925781 -24.890625 18.507812 -24.328125 19 -23.671875 C 19.5 -23.015625 19.851562 -22.257812 20.0625 -21.40625 C 20.1875 -20.757812 20.398438 -20.4375 20.703125 -20.4375 C 20.992188 -20.4375 21.140625 -20.800781 21.140625 -21.53125 L 21.140625 -27.53125 C 21.140625 -27.914062 21.035156 -28.109375 20.828125 -28.109375 C 20.617188 -28.109375 20.488281 -28.066406 20.4375 -27.984375 C 20.394531 -27.898438 20.332031 -27.816406 20.25 -27.734375 Z M 20.25 -27.734375 "/></g></g></g><g fill="#373f68" fill-opacity="1"><g transform="translate(291.431223, 69.360466)"><g><path d="M 14.375 -38.203125 L 13.484375 -38.203125 C 13.222656 -36.585938 12.785156 -35.171875 12.171875 -33.953125 C 11.554688 -32.742188 10.851562 -31.710938 10.0625 -30.859375 C 9.269531 -30.003906 8.414062 -29.300781 7.5 -28.75 C 6.59375 -28.195312 5.691406 -27.769531 4.796875 -27.46875 L 1.34375 -27.46875 L 1.34375 -26.453125 L 4.796875 -26.453125 L 4.796875 -11.25 C 4.796875 -8.90625 5.082031 -6.960938 5.65625 -5.421875 C 6.226562 -3.890625 7.015625 -2.664062 8.015625 -1.75 C 9.015625 -0.84375 10.1875 -0.195312 11.53125 0.1875 C 12.875 0.570312 14.289062 0.765625 15.78125 0.765625 C 18.375 0.765625 20.265625 0.234375 21.453125 -0.828125 C 22.648438 -1.890625 23.421875 -3.335938 23.765625 -5.171875 L 23.765625 -5.359375 C 23.765625 -5.828125 23.570312 -6.0625 23.1875 -6.0625 C 23.0625 -6.0625 22.9375 -6 22.8125 -5.875 C 22.6875 -5.75 22.597656 -5.554688 22.546875 -5.296875 C 22.335938 -4.023438 21.859375 -3.023438 21.109375 -2.296875 C 20.367188 -1.578125 19.507812 -1.21875 18.53125 -1.21875 C 16.90625 -1.21875 15.804688 -1.921875 15.234375 -3.328125 C 14.660156 -4.734375 14.375 -7.03125 14.375 -10.21875 L 14.375 -26.453125 L 19.171875 -26.453125 L 19.171875 -27.46875 L 14.375 -27.46875 Z M 14.375 -38.203125 "/></g></g></g><g fill="#373f68" fill-opacity="1"><g transform="translate(317.626473, 69.360466)"><g><path d="M 14.765625 -1.015625 L 14.765625 -44.65625 L 1.71875 -42.234375 L 1.71875 -41.203125 L 5.171875 -41.84375 L 5.171875 -1.015625 L 1.71875 -1.015625 L 1.71875 0 L 18.203125 0 L 18.203125 -1.015625 Z M 14.765625 -1.015625 "/></g></g></g><g fill="#373f68" fill-opacity="1"><g transform="translate(338.966063, 69.360466)"><g><path d="M 20.3125 -0.390625 L 29.328125 -23.953125 C 29.671875 -24.890625 30.179688 -25.539062 30.859375 -25.90625 C 31.535156 -26.269531 32.300781 -26.453125 33.15625 -26.453125 L 33.15625 -27.46875 L 25.625 -27.46875 L 25.625 -26.453125 C 26.644531 -26.453125 27.34375 -26.289062 27.71875 -25.96875 C 28.101562 -25.65625 28.296875 -25.328125 28.296875 -24.984375 C 28.296875 -24.554688 28.234375 -24.210938 28.109375 -23.953125 L 22.421875 -9.078125 L 14.1875 -26.453125 L 17.640625 -26.453125 L 17.640625 -27.46875 L 1.15625 -27.46875 L 1.15625 -26.453125 L 4.53125 -26.453125 L 18.265625 2.171875 C 18.054688 3.066406 17.800781 4.003906 17.5 4.984375 C 17.207031 5.960938 16.785156 7.238281 16.234375 8.8125 C 15.546875 10.769531 14.785156 12.351562 13.953125 13.5625 C 13.128906 14.78125 11.925781 15.390625 10.34375 15.390625 C 10.769531 15.097656 11.117188 14.726562 11.390625 14.28125 C 11.671875 13.832031 11.8125 13.160156 11.8125 12.265625 C 11.8125 11.285156 11.472656 10.421875 10.796875 9.671875 C 10.117188 8.929688 9.179688 8.5625 7.984375 8.5625 C 6.796875 8.5625 5.804688 8.921875 5.015625 9.640625 C 4.222656 10.367188 3.828125 11.265625 3.828125 12.328125 C 3.828125 13.773438 4.335938 14.859375 5.359375 15.578125 C 6.390625 16.304688 7.519531 16.671875 8.75 16.671875 C 9.988281 16.671875 11.03125 16.550781 11.875 16.3125 C 12.726562 16.082031 13.453125 15.703125 14.046875 15.171875 C 14.648438 14.640625 15.1875 13.945312 15.65625 13.09375 C 16.125 12.238281 16.59375 11.175781 17.0625 9.90625 C 17.351562 9.050781 17.648438 8.144531 17.953125 7.1875 C 18.253906 6.226562 18.539062 5.289062 18.8125 4.375 C 19.09375 3.457031 19.359375 2.582031 19.609375 1.75 C 19.867188 0.925781 20.101562 0.210938 20.3125 -0.390625 Z M 20.3125 -0.390625 "/></g></g></g><g transform="matrix(1, 0, 0, 1, 3, 10)"><g clip-path="url(#a0a8fac7ce)"><g clip-path="url(#0081287e9e)"><g clip-path="url(#145b722a1f)"><g transform="matrix(1, 0, 0, 1, -0.000000000000000444, 0.000000000000008882)"><g clip-path="url(#c3c7f0116c)"><g clip-path="url(#fdeab253e9)"><g clip-path="url(#7df80e118b)"><path fill="#ad1fea" d="M 0.941406 0.5 L 85.054688 0.5 L 85.054688 84.285156 L 0.941406 84.285156 Z M 0.941406 0.5 " fill-opacity="1" fill-rule="nonzero"/></g></g></g></g></g></g><g clip-path="url(#297f9ddaad)"><path fill="#373f68" d="M 42.996094 23.113281 C 53.554688 23.113281 62.234375 31.796875 62.234375 42.355469 C 62.234375 52.917969 53.554688 61.597656 42.996094 61.597656 L 42.996094 74.472656 C 60.789062 74.402344 75.039062 60.007812 75.039062 42.355469 C 75.039062 24.707031 60.644531 10.3125 42.996094 10.3125 C 25.34375 10.3125 10.949219 24.707031 10.949219 42.355469 L 23.753906 42.355469 C 23.753906 31.796875 32.433594 23.113281 42.996094 23.113281 Z M 42.996094 23.113281 " fill-opacity="1" fill-rule="nonzero"/></g></g></g></svg>