<svg xmlns="http://www.w3.org/2000/svg" xmlns:xlink="http://www.w3.org/1999/xlink" width="500" zoomAndPan="magnify" viewBox="0 0 375 374.999991" height="500" preserveAspectRatio="xMidYMid meet" version="1.0"><defs><clipPath id="b5c26ab20a"><path d="M 4.578125 5.289062 L 371 5.289062 L 371 369.710938 L 4.578125 369.710938 Z M 4.578125 5.289062 " clip-rule="nonzero"/></clipPath><clipPath id="0c003a43cc"><path d="M 187.5 5.289062 C 86.472656 5.289062 4.578125 86.867188 4.578125 187.5 C 4.578125 288.132812 86.472656 369.710938 187.5 369.710938 C 288.527344 369.710938 370.421875 288.132812 370.421875 187.5 C 370.421875 86.867188 288.527344 5.289062 187.5 5.289062 Z M 187.5 5.289062 " clip-rule="nonzero"/></clipPath><clipPath id="d5e8532938"><path d="M 0.578125 0.289062 L 366.558594 0.289062 L 366.558594 364.710938 L 0.578125 364.710938 Z M 0.578125 0.289062 " clip-rule="nonzero"/></clipPath><clipPath id="29d8a0c6c2"><path d="M 183.5 0.289062 C 82.472656 0.289062 0.578125 81.867188 0.578125 182.5 C 0.578125 283.132812 82.472656 364.710938 183.5 364.710938 C 284.527344 364.710938 366.421875 283.132812 366.421875 182.5 C 366.421875 81.867188 284.527344 0.289062 183.5 0.289062 Z M 183.5 0.289062 " clip-rule="nonzero"/></clipPath><clipPath id="908aee053b"><rect x="0" width="367" y="0" height="365"/></clipPath><clipPath id="fa3e8b3e82"><path d="M 48.121094 47.945312 L 327 47.945312 L 327 326.945312 L 48.121094 326.945312 Z M 48.121094 47.945312 " clip-rule="nonzero"/></clipPath></defs><g clip-path="url(#b5c26ab20a)"><g clip-path="url(#0c003a43cc)"><g transform="matrix(1, 0, 0, 1, 4, 5)"><g clip-path="url(#908aee053b)"><g clip-path="url(#d5e8532938)"><g clip-path="url(#29d8a0c6c2)"><path fill="#ad1fea" d="M 0.578125 0.289062 L 366.421875 0.289062 L 366.421875 364.710938 L 0.578125 364.710938 Z M 0.578125 0.289062 " fill-opacity="1" fill-rule="nonzero"/></g></g></g></g></g></g><g clip-path="url(#fa3e8b3e82)"><path fill="#373f68" d="M 187.492188 103.652344 C 233.429688 103.652344 271.183594 141.40625 271.183594 187.339844 C 271.183594 233.273438 233.429688 271.03125 187.492188 271.03125 L 187.492188 327.03125 C 264.890625 326.714844 326.871094 264.109375 326.871094 187.339844 C 326.871094 110.574219 264.261719 47.964844 187.492188 47.964844 C 110.726562 47.964844 48.117188 110.574219 48.117188 187.339844 L 103.804688 187.339844 C 103.804688 141.40625 141.558594 103.652344 187.492188 103.652344 Z M 187.492188 103.652344 " fill-opacity="1" fill-rule="nonzero"/></g></svg>