<svg xmlns="http://www.w3.org/2000/svg" xmlns:xlink="http://www.w3.org/1999/xlink" width="500" zoomAndPan="magnify" viewBox="0 0 375 74.999997" height="100" preserveAspectRatio="xMidYMid meet" version="1.2"><defs><clipPath id="0a5ee710c4"><rect x="0" width="310" y="0" height="58"/></clipPath><clipPath id="1faa6a3d87"><path d="M 24 36 L 44 36 L 44 58.992188 L 24 58.992188 Z M 24 36 "/></clipPath><clipPath id="8eb0dc7778"><path d="M 24 37 L 44 37 L 44 58.992188 L 24 58.992188 Z M 24 37 "/></clipPath><clipPath id="d2b5d81642"><path d="M 14.773438 16.242188 L 53.023438 16.242188 L 53.023438 50 L 14.773438 50 Z M 14.773438 16.242188 "/></clipPath></defs><g id="db7b71a2c8"><g transform="matrix(1,0,0,1,59,8)"><g clip-path="url(#0a5ee710c4)"><g style="fill:#373f68;fill-opacity:1;"><g transform="translate(0.372002, 46.892477)"><path style="stroke:none" d="M 23.984375 -36.015625 L 22.609375 -33.953125 C 21.867188 -34.453125 20.878906 -34.960938 19.640625 -35.484375 C 18.410156 -36.015625 16.847656 -36.28125 14.953125 -36.28125 C 13.015625 -36.28125 11.3125 -35.9375 9.84375 -35.25 C 8.382812 -34.5625 7.160156 -33.671875 6.171875 -32.578125 C 5.191406 -31.492188 4.445312 -30.242188 3.9375 -28.828125 C 3.425781 -27.421875 3.171875 -26.015625 3.171875 -24.609375 C 3.171875 -22.109375 3.769531 -20.015625 4.96875 -18.328125 C 6.164062 -16.640625 8.117188 -15.40625 10.828125 -14.625 C 11.460938 -14.445312 12.148438 -14.269531 12.890625 -14.09375 C 13.628906 -13.925781 14.359375 -13.757812 15.078125 -13.59375 C 15.796875 -13.4375 16.453125 -13.285156 17.046875 -13.140625 C 17.648438 -13.003906 18.113281 -12.882812 18.4375 -12.78125 C 20.082031 -12.320312 21.195312 -11.632812 21.78125 -10.71875 C 22.363281 -9.800781 22.65625 -8.601562 22.65625 -7.125 C 22.65625 -6.425781 22.503906 -5.679688 22.203125 -4.890625 C 21.910156 -4.097656 21.453125 -3.363281 20.828125 -2.6875 C 20.210938 -2.019531 19.421875 -1.457031 18.453125 -1 C 17.484375 -0.539062 16.347656 -0.3125 15.046875 -0.3125 C 13.285156 -0.3125 11.78125 -0.628906 10.53125 -1.265625 C 9.28125 -1.898438 8.210938 -2.726562 7.328125 -3.75 C 6.453125 -4.769531 5.734375 -5.910156 5.171875 -7.171875 C 4.609375 -8.441406 4.148438 -9.710938 3.796875 -10.984375 C 3.660156 -11.472656 3.503906 -11.71875 3.328125 -11.71875 C 3.222656 -11.71875 3.144531 -11.664062 3.09375 -11.5625 C 3.039062 -11.457031 3.015625 -11.226562 3.015625 -10.875 L 3.015625 -0.53125 C 3.015625 -0.320312 3.039062 -0.128906 3.09375 0.046875 C 3.144531 0.222656 3.257812 0.3125 3.4375 0.3125 C 3.675781 0.3125 3.957031 0.0664062 4.28125 -0.421875 L 5.921875 -2.90625 C 6.265625 -2.550781 6.691406 -2.171875 7.203125 -1.765625 C 7.710938 -1.359375 8.328125 -0.976562 9.046875 -0.625 C 9.773438 -0.28125 10.625 0.015625 11.59375 0.265625 C 12.5625 0.515625 13.710938 0.640625 15.046875 0.640625 C 17.128906 0.640625 18.941406 0.296875 20.484375 -0.390625 C 22.035156 -1.078125 23.320312 -1.984375 24.34375 -3.109375 C 25.363281 -4.242188 26.128906 -5.53125 26.640625 -6.96875 C 27.148438 -8.414062 27.40625 -9.894531 27.40625 -11.40625 C 27.40625 -14.644531 26.601562 -17.257812 25 -19.25 C 23.40625 -21.238281 21.039062 -22.53125 17.90625 -23.125 C 17.125 -23.269531 16.171875 -23.472656 15.046875 -23.734375 C 13.921875 -24.003906 12.9375 -24.28125 12.09375 -24.5625 C 11 -24.945312 10.210938 -25.570312 9.734375 -26.4375 C 9.265625 -27.300781 9.03125 -28.382812 9.03125 -29.6875 C 9.03125 -30.382812 9.148438 -31.078125 9.390625 -31.765625 C 9.640625 -32.453125 10.007812 -33.054688 10.5 -33.578125 C 11 -34.109375 11.617188 -34.53125 12.359375 -34.84375 C 13.097656 -35.164062 13.960938 -35.328125 14.953125 -35.328125 C 15.753906 -35.328125 16.585938 -35.210938 17.453125 -34.984375 C 18.316406 -34.753906 19.148438 -34.335938 19.953125 -33.734375 C 20.765625 -33.140625 21.523438 -32.296875 22.234375 -31.203125 C 22.941406 -30.117188 23.523438 -28.734375 23.984375 -27.046875 C 24.085938 -26.546875 24.242188 -26.296875 24.453125 -26.296875 C 24.628906 -26.296875 24.722656 -26.375 24.734375 -26.53125 C 24.753906 -26.695312 24.765625 -26.882812 24.765625 -27.09375 L 24.765625 -35.96875 C 24.765625 -36.320312 24.675781 -36.5 24.5 -36.5 C 24.320312 -36.5 24.148438 -36.335938 23.984375 -36.015625 Z M 23.984375 -36.015625 "/></g></g><g style="fill:#373f68;fill-opacity:1;"><g transform="translate(31.267019, 46.892477)"><path style="stroke:none" d="M 25.34375 -34.796875 C 26.082031 -34.796875 26.734375 -34.578125 27.296875 -34.140625 C 27.867188 -33.703125 28.15625 -33.023438 28.15625 -32.109375 L 28.15625 -10.671875 C 28.15625 -9.046875 27.941406 -7.625 27.515625 -6.40625 C 27.085938 -5.195312 26.519531 -4.1875 25.8125 -3.375 C 25.113281 -2.570312 24.304688 -1.96875 23.390625 -1.5625 C 22.472656 -1.15625 21.523438 -0.953125 20.546875 -0.953125 C 19.023438 -0.953125 17.78125 -1.144531 16.8125 -1.53125 C 15.851562 -1.914062 15.085938 -2.453125 14.515625 -3.140625 C 13.953125 -3.828125 13.554688 -4.644531 13.328125 -5.59375 C 13.097656 -6.550781 12.984375 -7.59375 12.984375 -8.71875 L 12.984375 -34.796875 L 15.84375 -34.796875 L 15.84375 -35.65625 L 1.640625 -35.65625 L 1.640625 -34.796875 L 4.484375 -34.796875 L 4.484375 -10.515625 C 4.484375 -8.640625 4.800781 -7.003906 5.4375 -5.609375 C 6.070312 -4.222656 6.960938 -3.0625 8.109375 -2.125 C 9.253906 -1.195312 10.625 -0.503906 12.21875 -0.046875 C 13.820312 0.410156 15.59375 0.640625 17.53125 0.640625 C 21.332031 0.640625 24.207031 -0.300781 26.15625 -2.1875 C 28.113281 -4.070312 29.09375 -6.914062 29.09375 -10.71875 L 29.09375 -32.109375 C 29.09375 -33.023438 29.390625 -33.703125 29.984375 -34.140625 C 30.585938 -34.578125 31.242188 -34.796875 31.953125 -34.796875 L 31.953125 -35.65625 L 25.34375 -35.65625 Z M 25.34375 -34.796875 "/></g></g><g style="fill:#373f68;fill-opacity:1;"><g transform="translate(65.753224, 46.892477)"><path style="stroke:none" d="M 31.21875 -36.078125 C 31.039062 -36.078125 30.828125 -35.953125 30.578125 -35.703125 L 28.578125 -33.640625 C 28.253906 -33.890625 27.847656 -34.160156 27.359375 -34.453125 C 26.867188 -34.753906 26.242188 -35.035156 25.484375 -35.296875 C 24.722656 -35.566406 23.820312 -35.796875 22.78125 -35.984375 C 21.75 -36.179688 20.507812 -36.28125 19.0625 -36.28125 C 16.101562 -36.28125 13.503906 -35.742188 11.265625 -34.671875 C 9.035156 -33.597656 7.171875 -32.1875 5.671875 -30.4375 C 4.179688 -28.695312 3.054688 -26.71875 2.296875 -24.5 C 1.535156 -22.28125 1.15625 -20.03125 1.15625 -17.75 C 1.15625 -15.457031 1.535156 -13.207031 2.296875 -11 C 3.054688 -8.800781 4.191406 -6.835938 5.703125 -5.109375 C 7.210938 -3.390625 9.101562 -2 11.375 -0.9375 C 13.644531 0.113281 16.296875 0.640625 19.328125 0.640625 C 21.265625 0.640625 23.023438 0.4375 24.609375 0.03125 C 26.191406 -0.375 27.609375 -0.898438 28.859375 -1.546875 C 30.109375 -2.203125 31.191406 -2.925781 32.109375 -3.71875 C 33.023438 -4.507812 33.800781 -5.296875 34.4375 -6.078125 L 34.4375 -12.203125 L 37.234375 -12.203125 L 37.234375 -13.09375 L 23.078125 -13.09375 L 23.078125 -12.203125 L 25.875 -12.203125 L 25.875 -7.28125 C 25.875 -6.332031 25.734375 -5.4375 25.453125 -4.59375 C 25.171875 -3.75 24.753906 -3.007812 24.203125 -2.375 C 23.660156 -1.738281 22.984375 -1.234375 22.171875 -0.859375 C 21.367188 -0.492188 20.421875 -0.3125 19.328125 -0.3125 C 17.773438 -0.3125 16.441406 -0.566406 15.328125 -1.078125 C 14.222656 -1.585938 13.316406 -2.421875 12.609375 -3.578125 C 11.910156 -4.742188 11.394531 -6.269531 11.0625 -8.15625 C 10.726562 -10.039062 10.5625 -12.359375 10.5625 -15.109375 L 10.5625 -20.390625 C 10.5625 -23.128906 10.769531 -25.445312 11.1875 -27.34375 C 11.613281 -29.25 12.203125 -30.789062 12.953125 -31.96875 C 13.710938 -33.15625 14.613281 -34.007812 15.65625 -34.53125 C 16.695312 -35.0625 17.832031 -35.328125 19.0625 -35.328125 C 20.75 -35.328125 22.207031 -35.140625 23.4375 -34.765625 C 24.675781 -34.398438 25.757812 -33.859375 26.6875 -33.140625 C 27.625 -32.421875 28.410156 -31.53125 29.046875 -30.46875 C 29.679688 -29.414062 30.242188 -28.203125 30.734375 -26.828125 C 30.804688 -26.648438 30.882812 -26.488281 30.96875 -26.34375 C 31.0625 -26.207031 31.175781 -26.140625 31.3125 -26.140625 C 31.488281 -26.140625 31.578125 -26.351562 31.578125 -26.78125 L 31.578125 -35.4375 C 31.578125 -35.863281 31.457031 -36.078125 31.21875 -36.078125 Z M 31.21875 -36.078125 "/></g></g><g style="fill:#373f68;fill-opacity:1;"><g transform="translate(105.414955, 46.892477)"><path style="stroke:none" d="M 31.21875 -36.078125 C 31.039062 -36.078125 30.828125 -35.953125 30.578125 -35.703125 L 28.578125 -33.640625 C 28.253906 -33.890625 27.847656 -34.160156 27.359375 -34.453125 C 26.867188 -34.753906 26.242188 -35.035156 25.484375 -35.296875 C 24.722656 -35.566406 23.820312 -35.796875 22.78125 -35.984375 C 21.75 -36.179688 20.507812 -36.28125 19.0625 -36.28125 C 16.101562 -36.28125 13.503906 -35.742188 11.265625 -34.671875 C 9.035156 -33.597656 7.171875 -32.1875 5.671875 -30.4375 C 4.179688 -28.695312 3.054688 -26.71875 2.296875 -24.5 C 1.535156 -22.28125 1.15625 -20.03125 1.15625 -17.75 C 1.15625 -15.457031 1.535156 -13.207031 2.296875 -11 C 3.054688 -8.800781 4.191406 -6.835938 5.703125 -5.109375 C 7.210938 -3.390625 9.101562 -2 11.375 -0.9375 C 13.644531 0.113281 16.296875 0.640625 19.328125 0.640625 C 21.265625 0.640625 23.023438 0.4375 24.609375 0.03125 C 26.191406 -0.375 27.609375 -0.898438 28.859375 -1.546875 C 30.109375 -2.203125 31.191406 -2.925781 32.109375 -3.71875 C 33.023438 -4.507812 33.800781 -5.296875 34.4375 -6.078125 L 34.4375 -12.203125 L 37.234375 -12.203125 L 37.234375 -13.09375 L 23.078125 -13.09375 L 23.078125 -12.203125 L 25.875 -12.203125 L 25.875 -7.28125 C 25.875 -6.332031 25.734375 -5.4375 25.453125 -4.59375 C 25.171875 -3.75 24.753906 -3.007812 24.203125 -2.375 C 23.660156 -1.738281 22.984375 -1.234375 22.171875 -0.859375 C 21.367188 -0.492188 20.421875 -0.3125 19.328125 -0.3125 C 17.773438 -0.3125 16.441406 -0.566406 15.328125 -1.078125 C 14.222656 -1.585938 13.316406 -2.421875 12.609375 -3.578125 C 11.910156 -4.742188 11.394531 -6.269531 11.0625 -8.15625 C 10.726562 -10.039062 10.5625 -12.359375 10.5625 -15.109375 L 10.5625 -20.390625 C 10.5625 -23.128906 10.769531 -25.445312 11.1875 -27.34375 C 11.613281 -29.25 12.203125 -30.789062 12.953125 -31.96875 C 13.710938 -33.15625 14.613281 -34.007812 15.65625 -34.53125 C 16.695312 -35.0625 17.832031 -35.328125 19.0625 -35.328125 C 20.75 -35.328125 22.207031 -35.140625 23.4375 -34.765625 C 24.675781 -34.398438 25.757812 -33.859375 26.6875 -33.140625 C 27.625 -32.421875 28.410156 -31.53125 29.046875 -30.46875 C 29.679688 -29.414062 30.242188 -28.203125 30.734375 -26.828125 C 30.804688 -26.648438 30.882812 -26.488281 30.96875 -26.34375 C 31.0625 -26.207031 31.175781 -26.140625 31.3125 -26.140625 C 31.488281 -26.140625 31.578125 -26.351562 31.578125 -26.78125 L 31.578125 -35.4375 C 31.578125 -35.863281 31.457031 -36.078125 31.21875 -36.078125 Z M 31.21875 -36.078125 "/></g></g><g style="fill:#373f68;fill-opacity:1;"><g transform="translate(145.076687, 46.892477)"><path style="stroke:none" d="M 21.125 -11.984375 C 21.476562 -11.984375 21.65625 -12.300781 21.65625 -12.9375 L 21.65625 -24.453125 C 21.65625 -25.085938 21.476562 -25.40625 21.125 -25.40625 C 20.8125 -25.40625 20.632812 -25.085938 20.59375 -24.453125 C 20.414062 -22.691406 19.96875 -21.363281 19.25 -20.46875 C 18.53125 -19.570312 17.5 -19.125 16.15625 -19.125 L 12.9375 -19.125 L 12.9375 -34.796875 L 17 -34.796875 C 18.375 -34.796875 19.582031 -34.550781 20.625 -34.0625 C 21.664062 -33.570312 22.546875 -32.929688 23.265625 -32.140625 C 23.984375 -31.347656 24.523438 -30.457031 24.890625 -29.46875 C 25.265625 -28.476562 25.488281 -27.492188 25.5625 -26.515625 C 25.5625 -26.054688 25.738281 -25.828125 26.09375 -25.828125 C 26.445312 -25.828125 26.625 -26.054688 26.625 -26.515625 L 26.1875 -34.171875 C 26.15625 -34.734375 26 -35.117188 25.71875 -35.328125 C 25.4375 -35.546875 25.03125 -35.65625 24.5 -35.65625 L 1.578125 -35.65625 L 1.578125 -34.796875 L 4.4375 -34.796875 L 4.4375 -0.84375 L 1.578125 -0.84375 L 1.578125 0 L 26.671875 0 C 27.234375 0 27.609375 -0.140625 27.796875 -0.421875 C 27.992188 -0.703125 28.09375 -1.085938 28.09375 -1.578125 L 28.09375 -10.25 C 28.09375 -10.8125 27.914062 -11.09375 27.5625 -11.09375 C 27.21875 -11.09375 26.988281 -10.8125 26.875 -10.25 C 26.59375 -8.945312 26.296875 -7.722656 25.984375 -6.578125 C 25.671875 -5.429688 25.195312 -4.4375 24.5625 -3.59375 C 23.925781 -2.75 23.085938 -2.078125 22.046875 -1.578125 C 21.003906 -1.085938 19.640625 -0.84375 17.953125 -0.84375 L 12.9375 -0.84375 L 12.9375 -18.265625 L 16.15625 -18.265625 C 17.5 -18.265625 18.53125 -17.820312 19.25 -16.9375 C 19.96875 -16.0625 20.414062 -14.726562 20.59375 -12.9375 C 20.632812 -12.300781 20.8125 -11.984375 21.125 -11.984375 Z M 21.125 -11.984375 "/></g></g><g style="fill:#373f68;fill-opacity:1;"><g transform="translate(176.499811, 46.892477)"><path style="stroke:none" d="M 23.984375 -36.015625 L 22.609375 -33.953125 C 21.867188 -34.453125 20.878906 -34.960938 19.640625 -35.484375 C 18.410156 -36.015625 16.847656 -36.28125 14.953125 -36.28125 C 13.015625 -36.28125 11.3125 -35.9375 9.84375 -35.25 C 8.382812 -34.5625 7.160156 -33.671875 6.171875 -32.578125 C 5.191406 -31.492188 4.445312 -30.242188 3.9375 -28.828125 C 3.425781 -27.421875 3.171875 -26.015625 3.171875 -24.609375 C 3.171875 -22.109375 3.769531 -20.015625 4.96875 -18.328125 C 6.164062 -16.640625 8.117188 -15.40625 10.828125 -14.625 C 11.460938 -14.445312 12.148438 -14.269531 12.890625 -14.09375 C 13.628906 -13.925781 14.359375 -13.757812 15.078125 -13.59375 C 15.796875 -13.4375 16.453125 -13.285156 17.046875 -13.140625 C 17.648438 -13.003906 18.113281 -12.882812 18.4375 -12.78125 C 20.082031 -12.320312 21.195312 -11.632812 21.78125 -10.71875 C 22.363281 -9.800781 22.65625 -8.601562 22.65625 -7.125 C 22.65625 -6.425781 22.503906 -5.679688 22.203125 -4.890625 C 21.910156 -4.097656 21.453125 -3.363281 20.828125 -2.6875 C 20.210938 -2.019531 19.421875 -1.457031 18.453125 -1 C 17.484375 -0.539062 16.347656 -0.3125 15.046875 -0.3125 C 13.285156 -0.3125 11.78125 -0.628906 10.53125 -1.265625 C 9.28125 -1.898438 8.210938 -2.726562 7.328125 -3.75 C 6.453125 -4.769531 5.734375 -5.910156 5.171875 -7.171875 C 4.609375 -8.441406 4.148438 -9.710938 3.796875 -10.984375 C 3.660156 -11.472656 3.503906 -11.71875 3.328125 -11.71875 C 3.222656 -11.71875 3.144531 -11.664062 3.09375 -11.5625 C 3.039062 -11.457031 3.015625 -11.226562 3.015625 -10.875 L 3.015625 -0.53125 C 3.015625 -0.320312 3.039062 -0.128906 3.09375 0.046875 C 3.144531 0.222656 3.257812 0.3125 3.4375 0.3125 C 3.675781 0.3125 3.957031 0.0664062 4.28125 -0.421875 L 5.921875 -2.90625 C 6.265625 -2.550781 6.691406 -2.171875 7.203125 -1.765625 C 7.710938 -1.359375 8.328125 -0.976562 9.046875 -0.625 C 9.773438 -0.28125 10.625 0.015625 11.59375 0.265625 C 12.5625 0.515625 13.710938 0.640625 15.046875 0.640625 C 17.128906 0.640625 18.941406 0.296875 20.484375 -0.390625 C 22.035156 -1.078125 23.320312 -1.984375 24.34375 -3.109375 C 25.363281 -4.242188 26.128906 -5.53125 26.640625 -6.96875 C 27.148438 -8.414062 27.40625 -9.894531 27.40625 -11.40625 C 27.40625 -14.644531 26.601562 -17.257812 25 -19.25 C 23.40625 -21.238281 21.039062 -22.53125 17.90625 -23.125 C 17.125 -23.269531 16.171875 -23.472656 15.046875 -23.734375 C 13.921875 -24.003906 12.9375 -24.28125 12.09375 -24.5625 C 11 -24.945312 10.210938 -25.570312 9.734375 -26.4375 C 9.265625 -27.300781 9.03125 -28.382812 9.03125 -29.6875 C 9.03125 -30.382812 9.148438 -31.078125 9.390625 -31.765625 C 9.640625 -32.453125 10.007812 -33.054688 10.5 -33.578125 C 11 -34.109375 11.617188 -34.53125 12.359375 -34.84375 C 13.097656 -35.164062 13.960938 -35.328125 14.953125 -35.328125 C 15.753906 -35.328125 16.585938 -35.210938 17.453125 -34.984375 C 18.316406 -34.753906 19.148438 -34.335938 19.953125 -33.734375 C 20.765625 -33.140625 21.523438 -32.296875 22.234375 -31.203125 C 22.941406 -30.117188 23.523438 -28.734375 23.984375 -27.046875 C 24.085938 -26.546875 24.242188 -26.296875 24.453125 -26.296875 C 24.628906 -26.296875 24.722656 -26.375 24.734375 -26.53125 C 24.753906 -26.695312 24.765625 -26.882812 24.765625 -27.09375 L 24.765625 -35.96875 C 24.765625 -36.320312 24.675781 -36.5 24.5 -36.5 C 24.320312 -36.5 24.148438 -36.335938 23.984375 -36.015625 Z M 23.984375 -36.015625 "/></g></g><g style="fill:#373f68;fill-opacity:1;"><g transform="translate(207.394828, 46.892477)"><path style="stroke:none" d="M 20.328125 -0.84375 L 20.328125 -34.796875 L 22.5 -34.796875 C 24.289062 -34.796875 25.828125 -33.929688 27.109375 -32.203125 C 28.398438 -30.484375 29.3125 -28.144531 29.84375 -25.1875 L 30.890625 -25.1875 L 30.109375 -34.546875 C 30.066406 -34.859375 29.945312 -35.117188 29.75 -35.328125 C 29.5625 -35.546875 29.1875 -35.65625 28.625 -35.65625 L 3.328125 -35.65625 C 2.867188 -35.65625 2.550781 -35.546875 2.375 -35.328125 C 2.195312 -35.117188 2.09375 -34.859375 2.0625 -34.546875 L 1.265625 -25.1875 L 2.328125 -25.1875 C 2.847656 -28.144531 3.75 -30.484375 5.03125 -32.203125 C 6.320312 -33.929688 7.867188 -34.796875 9.671875 -34.796875 L 11.828125 -34.796875 L 11.828125 -0.84375 L 8.984375 -0.84375 L 8.984375 0 L 23.1875 0 L 23.1875 -0.84375 Z M 20.328125 -0.84375 "/></g></g><g style="fill:#373f68;fill-opacity:1;"><g transform="translate(240.666366, 46.892477)"><path style="stroke:none" d="M 2.171875 -0.84375 L 2.171875 0 L 28.203125 0 L 28.203125 -10.25 C 28.203125 -10.8125 28.007812 -11.09375 27.625 -11.09375 C 27.34375 -11.09375 27.164062 -10.898438 27.09375 -10.515625 C 26.914062 -9.171875 26.640625 -7.914062 26.265625 -6.75 C 25.898438 -5.59375 25.410156 -4.582031 24.796875 -3.71875 C 24.179688 -2.851562 23.441406 -2.175781 22.578125 -1.6875 C 21.710938 -1.195312 20.703125 -0.953125 19.546875 -0.953125 L 13.515625 -0.953125 L 13.515625 -34.796875 L 16.375 -34.796875 L 16.375 -35.65625 L 2.171875 -35.65625 L 2.171875 -34.796875 L 5.015625 -34.796875 L 5.015625 -0.84375 Z M 2.171875 -0.84375 "/></g></g><g style="fill:#373f68;fill-opacity:1;"><g transform="translate(272.300755, 46.892477)"><path style="stroke:none" d="M 25.875 -35.65625 L 25.875 -34.796875 C 27.070312 -34.796875 27.890625 -34.644531 28.328125 -34.34375 C 28.773438 -34.050781 29 -33.660156 29 -33.171875 C 29 -32.671875 28.859375 -32.140625 28.578125 -31.578125 L 21.703125 -17.640625 L 12.625 -34.859375 L 15.46875 -34.859375 L 15.46875 -35.703125 L 1.109375 -35.703125 L 1.109375 -34.859375 L 3.90625 -34.859375 L 14.3125 -15.625 L 14.3125 -0.84375 L 11.453125 -0.84375 L 11.453125 0 L 25.671875 0 L 25.671875 -0.84375 L 22.8125 -0.84375 L 22.8125 -17 L 30 -31.578125 C 30.207031 -32.003906 30.429688 -32.410156 30.671875 -32.796875 C 30.921875 -33.179688 31.222656 -33.523438 31.578125 -33.828125 C 31.929688 -34.128906 32.363281 -34.363281 32.875 -34.53125 C 33.382812 -34.707031 34.023438 -34.796875 34.796875 -34.796875 L 34.796875 -35.65625 Z M 25.875 -35.65625 "/></g></g></g></g><g clip-rule="nonzero" clip-path="url(#1faa6a3d87)"><path style=" stroke:none;fill-rule:nonzero;fill:#ad1fea;fill-opacity:1;" d="M 24.855469 58.746094 C 24.816406 58.746094 24.789062 58.71875 24.789062 58.683594 L 24.789062 44.839844 C 24.789062 41.621094 26.417969 38.679688 29.148438 36.96875 C 29.160156 36.960938 29.171875 36.960938 29.183594 36.960938 C 29.199219 36.960938 29.214844 36.964844 29.222656 36.972656 C 29.917969 37.480469 30.679688 37.875 31.496094 38.144531 C 31.503906 38.148438 31.511719 38.152344 31.519531 38.160156 L 33.339844 39.980469 C 33.355469 39.996094 33.363281 40.015625 33.355469 40.039062 L 32.144531 46.378906 L 34.070312 49.484375 L 35.996094 46.378906 L 34.78125 40.039062 C 34.777344 40.015625 34.785156 39.996094 34.800781 39.980469 L 36.617188 38.160156 C 36.625 38.152344 36.636719 38.148438 36.644531 38.144531 C 37.457031 37.875 38.222656 37.480469 38.914062 36.972656 C 38.925781 36.964844 38.941406 36.960938 38.953125 36.960938 C 38.964844 36.960938 38.976562 36.960938 38.988281 36.96875 C 41.71875 38.679688 43.351562 41.621094 43.351562 44.839844 L 43.351562 58.683594 C 43.351562 58.71875 43.320312 58.746094 43.285156 58.746094 Z M 24.855469 58.746094 "/></g><g clip-rule="nonzero" clip-path="url(#8eb0dc7778)"><path style=" stroke:none;fill-rule:nonzero;fill:#ad1fea;fill-opacity:1;" d="M 43.285156 44.839844 L 43.285156 58.683594 L 24.855469 58.683594 L 24.855469 44.839844 C 24.855469 41.546875 26.585938 38.65625 29.183594 37.027344 C 29.875 37.53125 30.644531 37.933594 31.472656 38.207031 L 33.292969 40.027344 C 32.886719 42.148438 32.480469 44.269531 32.074219 46.390625 C 32.738281 47.464844 33.402344 48.535156 34.070312 49.609375 C 34.734375 48.535156 35.402344 47.464844 36.066406 46.390625 C 35.660156 44.269531 35.253906 42.148438 34.847656 40.027344 L 36.664062 38.207031 C 37.496094 37.933594 38.265625 37.53125 38.953125 37.027344 C 41.554688 38.65625 43.285156 41.546875 43.285156 44.839844 Z M 43.285156 44.839844 "/></g><g clip-rule="nonzero" clip-path="url(#d2b5d81642)"><path style=" stroke:none;fill-rule:nonzero;fill:#373f68;fill-opacity:1;" d="M 34.070312 49.675781 C 34.046875 49.675781 34.027344 49.664062 34.011719 49.644531 L 32.015625 46.425781 C 32.007812 46.410156 32.003906 46.394531 32.007812 46.378906 L 33.222656 40.046875 L 31.425781 38.253906 C 31.40625 38.234375 31.402344 38.199219 31.417969 38.171875 C 31.429688 38.152344 31.453125 38.140625 31.472656 38.140625 C 31.480469 38.140625 31.488281 38.140625 31.496094 38.144531 C 32.324219 38.417969 33.191406 38.558594 34.070312 38.558594 C 34.949219 38.558594 35.816406 38.417969 36.644531 38.144531 C 36.652344 38.140625 36.660156 38.140625 36.664062 38.140625 C 36.6875 38.140625 36.710938 38.152344 36.722656 38.171875 C 36.738281 38.199219 36.734375 38.234375 36.710938 38.253906 L 34.917969 40.046875 L 36.132812 46.378906 C 36.132812 46.394531 36.132812 46.410156 36.121094 46.425781 L 34.125 49.644531 C 34.113281 49.664062 34.09375 49.675781 34.070312 49.675781 Z M 46.277344 43.132812 C 46.238281 43.132812 46.210938 43.105469 46.210938 43.066406 L 46.210938 41 C 46.210938 40.964844 46.238281 40.933594 46.277344 40.933594 L 49.605469 40.933594 L 43.296875 34.625 C 43.28125 34.613281 43.277344 34.59375 43.277344 34.578125 C 43.277344 34.558594 43.28125 34.542969 43.296875 34.53125 L 44.757812 33.070312 C 44.769531 33.054688 44.785156 33.050781 44.804688 33.050781 C 44.820312 33.050781 44.835938 33.054688 44.851562 33.070312 L 51.160156 39.378906 L 51.160156 36.050781 C 51.160156 36.011719 51.191406 35.984375 51.226562 35.984375 L 53.292969 35.984375 C 53.328125 35.984375 53.359375 36.011719 53.359375 36.050781 L 53.359375 43.066406 C 53.359375 43.105469 53.328125 43.132812 53.292969 43.132812 Z M 14.847656 43.132812 C 14.808594 43.132812 14.78125 43.105469 14.78125 43.066406 L 14.78125 36.050781 C 14.78125 36.011719 14.808594 35.984375 14.847656 35.984375 L 16.914062 35.984375 C 16.949219 35.984375 16.980469 36.011719 16.980469 36.050781 L 16.980469 39.378906 L 23.289062 33.070312 C 23.300781 33.058594 23.316406 33.050781 23.335938 33.050781 C 23.351562 33.050781 23.371094 33.058594 23.382812 33.070312 L 24.84375 34.53125 C 24.871094 34.558594 24.871094 34.597656 24.84375 34.625 L 18.535156 40.933594 L 21.863281 40.933594 C 21.898438 40.933594 21.929688 40.964844 21.929688 41 L 21.929688 43.066406 C 21.929688 43.105469 21.898438 43.132812 21.863281 43.132812 Z M 44.804688 26.328125 C 44.785156 26.328125 44.769531 26.320312 44.757812 26.308594 L 43.296875 24.847656 C 43.28125 24.835938 43.277344 24.816406 43.277344 24.800781 C 43.277344 24.78125 43.28125 24.765625 43.296875 24.753906 L 49.605469 18.441406 L 46.277344 18.441406 C 46.238281 18.441406 46.210938 18.414062 46.210938 18.378906 L 46.210938 16.308594 C 46.210938 16.273438 46.238281 16.242188 46.277344 16.242188 L 53.292969 16.242188 C 53.328125 16.242188 53.359375 16.273438 53.359375 16.308594 L 53.359375 23.328125 C 53.359375 23.363281 53.328125 23.394531 53.292969 23.394531 L 51.226562 23.394531 C 51.191406 23.394531 51.160156 23.363281 51.160156 23.328125 L 51.160156 20 L 44.851562 26.308594 C 44.835938 26.320312 44.820312 26.328125 44.804688 26.328125 Z M 23.335938 26.328125 C 23.316406 26.328125 23.300781 26.320312 23.289062 26.308594 L 16.980469 20 L 16.980469 23.328125 C 16.980469 23.363281 16.949219 23.394531 16.914062 23.394531 L 14.847656 23.394531 C 14.808594 23.394531 14.78125 23.363281 14.78125 23.328125 L 14.78125 16.308594 C 14.78125 16.273438 14.808594 16.242188 14.847656 16.242188 L 21.863281 16.242188 C 21.898438 16.242188 21.929688 16.273438 21.929688 16.308594 L 21.929688 18.378906 C 21.929688 18.414062 21.898438 18.441406 21.863281 18.441406 L 18.535156 18.441406 L 24.84375 24.753906 C 24.871094 24.777344 24.871094 24.820312 24.84375 24.847656 L 23.382812 26.308594 C 23.371094 26.320312 23.351562 26.328125 23.335938 26.328125 Z M 23.335938 26.328125 "/><path style=" stroke:none;fill-rule:nonzero;fill:#373f68;fill-opacity:1;" d="M 53.292969 16.308594 L 53.292969 23.328125 L 51.226562 23.328125 L 51.226562 19.839844 L 44.804688 26.261719 L 43.34375 24.800781 L 49.765625 18.378906 L 46.277344 18.378906 L 46.277344 16.308594 Z M 21.863281 18.378906 L 21.863281 16.308594 L 14.847656 16.308594 L 14.847656 23.328125 L 16.914062 23.328125 L 16.914062 19.839844 L 23.335938 26.261719 L 24.796875 24.800781 L 18.375 18.378906 Z M 23.335938 33.117188 L 16.914062 39.539062 L 16.914062 36.050781 L 14.847656 36.050781 L 14.847656 43.066406 L 21.863281 43.066406 L 21.863281 41 L 18.375 41 L 24.796875 34.578125 Z M 51.226562 39.539062 L 44.804688 33.117188 L 43.34375 34.578125 L 49.765625 41 L 46.277344 41 L 46.277344 43.066406 L 53.292969 43.066406 L 53.292969 36.050781 L 51.226562 36.050781 Z M 31.472656 38.207031 L 33.292969 40.027344 C 32.886719 42.148438 32.480469 44.269531 32.074219 46.390625 C 32.738281 47.464844 33.402344 48.535156 34.070312 49.609375 C 34.734375 48.535156 35.402344 47.464844 36.066406 46.390625 C 35.660156 44.269531 35.253906 42.148438 34.847656 40.027344 L 36.664062 38.207031 C 35.847656 38.476562 34.976562 38.625 34.070312 38.625 C 33.164062 38.625 32.289062 38.476562 31.472656 38.207031 Z M 31.472656 38.207031 "/></g><path style=" stroke:none;fill-rule:nonzero;fill:#ffe7c2;fill-opacity:1;" d="M 34.070312 38.691406 C 33.175781 38.691406 32.296875 38.550781 31.453125 38.269531 C 30.625 37.996094 29.851562 37.597656 29.144531 37.078125 C 27.015625 35.511719 25.742188 33.003906 25.742188 30.363281 C 25.742188 25.769531 29.476562 22.035156 34.070312 22.035156 C 38.660156 22.035156 42.398438 25.769531 42.398438 30.363281 C 42.398438 33.003906 41.125 35.511719 38.992188 37.078125 C 38.289062 37.597656 37.511719 37.996094 36.6875 38.269531 C 35.84375 38.550781 34.964844 38.691406 34.070312 38.691406 Z M 34.070312 38.691406 "/><path style=" stroke:none;fill-rule:nonzero;fill:#ffe7c2;fill-opacity:1;" d="M 31.472656 38.207031 C 30.644531 37.933594 29.875 37.53125 29.183594 37.027344 C 27.136719 35.523438 25.808594 33.097656 25.808594 30.363281 C 25.808594 25.800781 29.507812 22.101562 34.070312 22.101562 C 38.632812 22.101562 42.332031 25.800781 42.332031 30.363281 C 42.332031 33.097656 41 35.523438 38.953125 37.027344 C 38.265625 37.53125 37.496094 37.933594 36.664062 38.207031 C 35.847656 38.476562 34.976562 38.625 34.070312 38.625 C 33.164062 38.625 32.289062 38.476562 31.472656 38.207031 Z M 31.472656 38.207031 "/></g></svg>