<svg xmlns="http://www.w3.org/2000/svg" xmlns:xlink="http://www.w3.org/1999/xlink" width="500" zoomAndPan="magnify" viewBox="0 0 375 104.999996" height="140" preserveAspectRatio="xMidYMid meet" version="1.0"><defs><g/><clipPath id="8d3d5f9a77"><rect x="0" width="375" y="0" height="95"/></clipPath></defs><g transform="matrix(1, 0, 0, 1, 0, 0.000000000000010413)"><g clip-path="url(#8d3d5f9a77)"><g fill="#373f68" fill-opacity="1"><g transform="translate(0.245463, 70.880879)"><g><path d="M 28.03125 -38.375 L 26.171875 -36.15625 C 25.398438 -36.800781 24.304688 -37.390625 22.890625 -37.921875 C 21.484375 -38.453125 19.773438 -38.71875 17.765625 -38.71875 C 15.117188 -38.71875 12.820312 -38.332031 10.875 -37.5625 C 8.925781 -36.800781 7.332031 -35.800781 6.09375 -34.5625 C 4.863281 -33.320312 3.9375 -31.90625 3.3125 -30.3125 C 2.695312 -28.726562 2.390625 -27.113281 2.390625 -25.46875 C 2.390625 -23.695312 2.695312 -22.015625 3.3125 -20.421875 C 3.9375 -18.828125 4.835938 -17.441406 6.015625 -16.265625 C 7.191406 -15.085938 8.632812 -14.160156 10.34375 -13.484375 C 12.050781 -12.804688 14.023438 -12.46875 16.265625 -12.46875 C 18.265625 -12.46875 19.867188 -12.273438 21.078125 -11.890625 C 22.285156 -11.503906 23.195312 -11.015625 23.8125 -10.421875 C 24.4375 -9.835938 24.835938 -9.191406 25.015625 -8.484375 C 25.191406 -7.773438 25.28125 -7.097656 25.28125 -6.453125 C 25.28125 -4.984375 24.660156 -3.628906 23.421875 -2.390625 C 22.191406 -1.148438 20.101562 -0.53125 17.15625 -0.53125 C 13.96875 -0.53125 11.296875 -1.335938 9.140625 -2.953125 C 6.992188 -4.578125 5.332031 -7.304688 4.15625 -11.140625 C 3.863281 -12.203125 3.507812 -12.734375 3.09375 -12.734375 C 2.625 -12.734375 2.390625 -12.320312 2.390625 -11.5 L 2.390625 -0.09375 C 2.390625 0.382812 2.566406 0.625 2.921875 0.625 C 3.148438 0.625 3.351562 0.535156 3.53125 0.359375 C 3.707031 0.179688 3.859375 -0.0234375 3.984375 -0.265625 L 5.75 -2.734375 C 6.863281 -1.910156 8.394531 -1.070312 10.34375 -0.21875 C 12.289062 0.632812 14.5625 1.0625 17.15625 1.0625 C 19.75 1.0625 21.988281 0.648438 23.875 -0.171875 C 25.757812 -1.003906 27.316406 -2.097656 28.546875 -3.453125 C 29.785156 -4.804688 30.710938 -6.335938 31.328125 -8.046875 C 31.953125 -9.753906 32.265625 -11.492188 32.265625 -13.265625 C 32.265625 -14.972656 32.054688 -16.59375 31.640625 -18.125 C 31.234375 -19.65625 30.515625 -21.007812 29.484375 -22.1875 C 28.453125 -23.363281 27.066406 -24.289062 25.328125 -24.96875 C 23.585938 -25.644531 21.390625 -25.984375 18.734375 -25.984375 C 15.554688 -25.984375 13.289062 -26.457031 11.9375 -27.40625 C 10.582031 -28.351562 9.90625 -29.679688 9.90625 -31.390625 C 9.90625 -32.796875 10.535156 -34.101562 11.796875 -35.3125 C 13.066406 -36.519531 15.054688 -37.125 17.765625 -37.125 C 18.765625 -37.125 19.796875 -36.945312 20.859375 -36.59375 C 21.921875 -36.238281 22.921875 -35.738281 23.859375 -35.09375 C 24.804688 -34.445312 25.617188 -33.664062 26.296875 -32.75 C 26.972656 -31.84375 27.460938 -30.796875 27.765625 -29.609375 C 27.941406 -28.734375 28.234375 -28.296875 28.640625 -28.296875 C 29.054688 -28.296875 29.265625 -28.796875 29.265625 -29.796875 L 29.265625 -38.109375 C 29.265625 -38.640625 29.117188 -38.90625 28.828125 -38.90625 C 28.523438 -38.90625 28.34375 -38.84375 28.28125 -38.71875 C 28.226562 -38.601562 28.144531 -38.488281 28.03125 -38.375 Z M 28.03125 -38.375 "/></g></g></g><g fill="#373f68" fill-opacity="1"><g transform="translate(36.933667, 70.880879)"><g><path d="M 7.078125 -36.328125 L 7.078125 -13.34375 C 7.078125 -3.738281 11.492188 1.0625 20.328125 1.0625 C 23.453125 1.0625 25.882812 0.351562 27.625 -1.0625 C 29.363281 -2.476562 30.675781 -4.097656 31.5625 -5.921875 L 31.5625 0 L 49.6875 0 L 49.6875 -1.421875 L 45 -1.421875 L 45 -40.046875 L 27.046875 -37.046875 L 27.046875 -35.546875 L 31.734375 -36.328125 L 31.734375 -13.078125 C 31.734375 -12.078125 31.523438 -10.941406 31.109375 -9.671875 C 30.703125 -8.410156 30.160156 -7.21875 29.484375 -6.09375 C 28.804688 -4.976562 28.007812 -4.035156 27.09375 -3.265625 C 26.175781 -2.503906 25.21875 -2.125 24.21875 -2.125 C 22.75 -2.125 21.734375 -2.625 21.171875 -3.625 C 20.609375 -4.625 20.328125 -6.421875 20.328125 -9.015625 L 20.328125 -40.046875 L 2.296875 -37.046875 L 2.296875 -35.546875 Z M 7.078125 -36.328125 "/></g></g></g><g fill="#373f68" fill-opacity="1"><g transform="translate(90.24197, 70.880879)"><g><path d="M 16 -21.84375 L 16 -30.40625 C 16 -32.820312 16.21875 -34.546875 16.65625 -35.578125 C 17.101562 -36.609375 18.148438 -37.125 19.796875 -37.125 C 21.453125 -37.125 22.5 -36.609375 22.9375 -35.578125 C 23.382812 -34.546875 23.609375 -32.820312 23.609375 -30.40625 L 23.609375 -21.84375 C 23.609375 -19.71875 23.382812 -18.195312 22.9375 -17.28125 C 22.5 -16.363281 21.453125 -15.90625 19.796875 -15.90625 C 18.148438 -15.90625 17.101562 -16.375 16.65625 -17.3125 C 16.21875 -18.257812 16 -19.769531 16 -21.84375 Z M 15.828125 -14.765625 C 16.410156 -14.648438 17.070312 -14.546875 17.8125 -14.453125 C 18.550781 -14.367188 19.1875 -14.328125 19.71875 -14.328125 C 21.78125 -14.328125 23.753906 -14.601562 25.640625 -15.15625 C 27.523438 -15.71875 29.203125 -16.53125 30.671875 -17.59375 C 32.148438 -18.65625 33.316406 -19.9375 34.171875 -21.4375 C 35.023438 -22.9375 35.453125 -24.628906 35.453125 -26.515625 C 35.453125 -29.171875 35.023438 -31.175781 34.171875 -32.53125 C 33.316406 -33.882812 32.566406 -34.828125 31.921875 -35.359375 C 32.210938 -35.828125 32.679688 -36.359375 33.328125 -36.953125 C 33.972656 -37.546875 34.710938 -38.046875 35.546875 -38.453125 C 35.015625 -37.804688 34.75 -37.160156 34.75 -36.515625 C 34.75 -35.804688 35.070312 -35.1875 35.71875 -34.65625 C 36.363281 -34.125 37.273438 -33.859375 38.453125 -33.859375 C 39.515625 -33.859375 40.296875 -34.148438 40.796875 -34.734375 C 41.296875 -35.328125 41.546875 -35.976562 41.546875 -36.6875 C 41.546875 -37.507812 41.3125 -38.257812 40.84375 -38.9375 C 40.375 -39.613281 39.726562 -40.070312 38.90625 -40.3125 C 38.25 -40.488281 37.628906 -40.578125 37.046875 -40.578125 C 35.691406 -40.578125 34.507812 -40.191406 33.5 -39.421875 C 32.5 -38.660156 31.441406 -37.691406 30.328125 -36.515625 C 29.378906 -37.046875 28.140625 -37.546875 26.609375 -38.015625 C 25.078125 -38.484375 22.804688 -38.71875 19.796875 -38.71875 C 16.847656 -38.71875 14.34375 -38.378906 12.28125 -37.703125 C 10.21875 -37.023438 8.550781 -36.125 7.28125 -35 C 6.019531 -33.882812 5.09375 -32.585938 4.5 -31.109375 C 3.914062 -29.640625 3.625 -28.109375 3.625 -26.515625 C 3.625 -24.804688 3.945312 -23.347656 4.59375 -22.140625 C 5.238281 -20.929688 6.019531 -19.898438 6.9375 -19.046875 C 7.851562 -18.191406 8.84375 -17.484375 9.90625 -16.921875 C 10.96875 -16.367188 11.9375 -15.882812 12.8125 -15.46875 C 11.695312 -15.289062 10.503906 -15.023438 9.234375 -14.671875 C 7.972656 -14.316406 6.8125 -13.753906 5.75 -12.984375 C 4.6875 -12.222656 3.800781 -11.222656 3.09375 -9.984375 C 2.382812 -8.753906 2.03125 -7.132812 2.03125 -5.125 C 2.03125 -3.300781 2.3125 -1.828125 2.875 -0.703125 C 3.4375 0.410156 4.113281 1.289062 4.90625 1.9375 C 5.695312 2.59375 6.5625 3.066406 7.5 3.359375 C 8.445312 3.648438 9.273438 3.882812 9.984375 4.0625 C 9.160156 4.300781 8.25 4.640625 7.25 5.078125 C 6.25 5.523438 5.332031 6.101562 4.5 6.8125 C 3.675781 7.519531 2.984375 8.414062 2.421875 9.5 C 1.867188 10.59375 1.59375 11.9375 1.59375 13.53125 C 1.59375 14.820312 1.929688 16.039062 2.609375 17.1875 C 3.285156 18.34375 4.375 19.332031 5.875 20.15625 C 7.382812 20.976562 9.332031 21.640625 11.71875 22.140625 C 14.101562 22.640625 16.972656 22.890625 20.328125 22.890625 C 22.921875 22.890625 25.304688 22.550781 27.484375 21.875 C 29.671875 21.195312 31.546875 20.253906 33.109375 19.046875 C 34.671875 17.835938 35.878906 16.394531 36.734375 14.71875 C 37.585938 13.039062 38.015625 11.171875 38.015625 9.109375 C 38.015625 6.046875 37.878906 3.394531 37.609375 1.15625 C 37.347656 -1.082031 36.613281 -2.953125 35.40625 -4.453125 C 34.195312 -5.960938 32.320312 -7.082031 29.78125 -7.8125 C 27.25 -8.550781 23.742188 -8.921875 19.265625 -8.921875 L 13.703125 -8.921875 C 12.410156 -8.921875 11.378906 -8.953125 10.609375 -9.015625 C 9.835938 -9.078125 9.257812 -9.195312 8.875 -9.375 C 8.5 -9.550781 8.25 -9.753906 8.125 -9.984375 C 8.007812 -10.222656 7.953125 -10.519531 7.953125 -10.875 C 7.953125 -11.46875 8.144531 -11.96875 8.53125 -12.375 C 8.914062 -12.789062 9.460938 -13.128906 10.171875 -13.390625 C 10.878906 -13.660156 11.71875 -13.894531 12.6875 -14.09375 C 13.65625 -14.300781 14.703125 -14.523438 15.828125 -14.765625 Z M 35.015625 11.578125 C 35.015625 12.753906 34.660156 13.914062 33.953125 15.0625 C 33.242188 16.21875 32.253906 17.265625 30.984375 18.203125 C 29.710938 19.148438 28.164062 19.90625 26.34375 20.46875 C 24.519531 21.03125 22.515625 21.3125 20.328125 21.3125 C 17.796875 21.3125 15.660156 21.046875 13.921875 20.515625 C 12.179688 19.984375 10.78125 19.300781 9.71875 18.46875 C 8.664062 17.644531 7.898438 16.6875 7.421875 15.59375 C 6.953125 14.507812 6.71875 13.40625 6.71875 12.28125 C 6.71875 10.394531 7.257812 8.65625 8.34375 7.0625 C 9.4375 5.476562 10.8125 4.453125 12.46875 3.984375 L 20.328125 3.984375 C 23.753906 3.984375 26.453125 4.273438 28.421875 4.859375 C 30.398438 5.453125 31.875 6.144531 32.84375 6.9375 C 33.8125 7.738281 34.414062 8.566406 34.65625 9.421875 C 34.894531 10.273438 35.015625 10.992188 35.015625 11.578125 Z M 35.015625 11.578125 "/></g></g></g><g fill="#373f68" fill-opacity="1"><g transform="translate(135.240223, 70.880879)"><g><path d="M 16 -21.84375 L 16 -30.40625 C 16 -32.820312 16.21875 -34.546875 16.65625 -35.578125 C 17.101562 -36.609375 18.148438 -37.125 19.796875 -37.125 C 21.453125 -37.125 22.5 -36.609375 22.9375 -35.578125 C 23.382812 -34.546875 23.609375 -32.820312 23.609375 -30.40625 L 23.609375 -21.84375 C 23.609375 -19.71875 23.382812 -18.195312 22.9375 -17.28125 C 22.5 -16.363281 21.453125 -15.90625 19.796875 -15.90625 C 18.148438 -15.90625 17.101562 -16.375 16.65625 -17.3125 C 16.21875 -18.257812 16 -19.769531 16 -21.84375 Z M 15.828125 -14.765625 C 16.410156 -14.648438 17.070312 -14.546875 17.8125 -14.453125 C 18.550781 -14.367188 19.1875 -14.328125 19.71875 -14.328125 C 21.78125 -14.328125 23.753906 -14.601562 25.640625 -15.15625 C 27.523438 -15.71875 29.203125 -16.53125 30.671875 -17.59375 C 32.148438 -18.65625 33.316406 -19.9375 34.171875 -21.4375 C 35.023438 -22.9375 35.453125 -24.628906 35.453125 -26.515625 C 35.453125 -29.171875 35.023438 -31.175781 34.171875 -32.53125 C 33.316406 -33.882812 32.566406 -34.828125 31.921875 -35.359375 C 32.210938 -35.828125 32.679688 -36.359375 33.328125 -36.953125 C 33.972656 -37.546875 34.710938 -38.046875 35.546875 -38.453125 C 35.015625 -37.804688 34.75 -37.160156 34.75 -36.515625 C 34.75 -35.804688 35.070312 -35.1875 35.71875 -34.65625 C 36.363281 -34.125 37.273438 -33.859375 38.453125 -33.859375 C 39.515625 -33.859375 40.296875 -34.148438 40.796875 -34.734375 C 41.296875 -35.328125 41.546875 -35.976562 41.546875 -36.6875 C 41.546875 -37.507812 41.3125 -38.257812 40.84375 -38.9375 C 40.375 -39.613281 39.726562 -40.070312 38.90625 -40.3125 C 38.25 -40.488281 37.628906 -40.578125 37.046875 -40.578125 C 35.691406 -40.578125 34.507812 -40.191406 33.5 -39.421875 C 32.5 -38.660156 31.441406 -37.691406 30.328125 -36.515625 C 29.378906 -37.046875 28.140625 -37.546875 26.609375 -38.015625 C 25.078125 -38.484375 22.804688 -38.71875 19.796875 -38.71875 C 16.847656 -38.71875 14.34375 -38.378906 12.28125 -37.703125 C 10.21875 -37.023438 8.550781 -36.125 7.28125 -35 C 6.019531 -33.882812 5.09375 -32.585938 4.5 -31.109375 C 3.914062 -29.640625 3.625 -28.109375 3.625 -26.515625 C 3.625 -24.804688 3.945312 -23.347656 4.59375 -22.140625 C 5.238281 -20.929688 6.019531 -19.898438 6.9375 -19.046875 C 7.851562 -18.191406 8.84375 -17.484375 9.90625 -16.921875 C 10.96875 -16.367188 11.9375 -15.882812 12.8125 -15.46875 C 11.695312 -15.289062 10.503906 -15.023438 9.234375 -14.671875 C 7.972656 -14.316406 6.8125 -13.753906 5.75 -12.984375 C 4.6875 -12.222656 3.800781 -11.222656 3.09375 -9.984375 C 2.382812 -8.753906 2.03125 -7.132812 2.03125 -5.125 C 2.03125 -3.300781 2.3125 -1.828125 2.875 -0.703125 C 3.4375 0.410156 4.113281 1.289062 4.90625 1.9375 C 5.695312 2.59375 6.5625 3.066406 7.5 3.359375 C 8.445312 3.648438 9.273438 3.882812 9.984375 4.0625 C 9.160156 4.300781 8.25 4.640625 7.25 5.078125 C 6.25 5.523438 5.332031 6.101562 4.5 6.8125 C 3.675781 7.519531 2.984375 8.414062 2.421875 9.5 C 1.867188 10.59375 1.59375 11.9375 1.59375 13.53125 C 1.59375 14.820312 1.929688 16.039062 2.609375 17.1875 C 3.285156 18.34375 4.375 19.332031 5.875 20.15625 C 7.382812 20.976562 9.332031 21.640625 11.71875 22.140625 C 14.101562 22.640625 16.972656 22.890625 20.328125 22.890625 C 22.921875 22.890625 25.304688 22.550781 27.484375 21.875 C 29.671875 21.195312 31.546875 20.253906 33.109375 19.046875 C 34.671875 17.835938 35.878906 16.394531 36.734375 14.71875 C 37.585938 13.039062 38.015625 11.171875 38.015625 9.109375 C 38.015625 6.046875 37.878906 3.394531 37.609375 1.15625 C 37.347656 -1.082031 36.613281 -2.953125 35.40625 -4.453125 C 34.195312 -5.960938 32.320312 -7.082031 29.78125 -7.8125 C 27.25 -8.550781 23.742188 -8.921875 19.265625 -8.921875 L 13.703125 -8.921875 C 12.410156 -8.921875 11.378906 -8.953125 10.609375 -9.015625 C 9.835938 -9.078125 9.257812 -9.195312 8.875 -9.375 C 8.5 -9.550781 8.25 -9.753906 8.125 -9.984375 C 8.007812 -10.222656 7.953125 -10.519531 7.953125 -10.875 C 7.953125 -11.46875 8.144531 -11.96875 8.53125 -12.375 C 8.914062 -12.789062 9.460938 -13.128906 10.171875 -13.390625 C 10.878906 -13.660156 11.71875 -13.894531 12.6875 -14.09375 C 13.65625 -14.300781 14.703125 -14.523438 15.828125 -14.765625 Z M 35.015625 11.578125 C 35.015625 12.753906 34.660156 13.914062 33.953125 15.0625 C 33.242188 16.21875 32.253906 17.265625 30.984375 18.203125 C 29.710938 19.148438 28.164062 19.90625 26.34375 20.46875 C 24.519531 21.03125 22.515625 21.3125 20.328125 21.3125 C 17.796875 21.3125 15.660156 21.046875 13.921875 20.515625 C 12.179688 19.984375 10.78125 19.300781 9.71875 18.46875 C 8.664062 17.644531 7.898438 16.6875 7.421875 15.59375 C 6.953125 14.507812 6.71875 13.40625 6.71875 12.28125 C 6.71875 10.394531 7.257812 8.65625 8.34375 7.0625 C 9.4375 5.476562 10.8125 4.453125 12.46875 3.984375 L 20.328125 3.984375 C 23.753906 3.984375 26.453125 4.273438 28.421875 4.859375 C 30.398438 5.453125 31.875 6.144531 32.84375 6.9375 C 33.8125 7.738281 34.414062 8.566406 34.65625 9.421875 C 34.894531 10.273438 35.015625 10.992188 35.015625 11.578125 Z M 35.015625 11.578125 "/></g></g></g><g fill="#373f68" fill-opacity="1"><g transform="translate(180.238477, 70.880879)"><g><path d="M 41.46875 -21.84375 C 41.226562 -23.425781 40.738281 -25.191406 40 -27.140625 C 39.269531 -29.085938 38.148438 -30.914062 36.640625 -32.625 C 35.140625 -34.332031 33.148438 -35.773438 30.671875 -36.953125 C 28.203125 -38.128906 25.082031 -38.71875 21.3125 -38.71875 C 17.945312 -38.71875 15.007812 -38.144531 12.5 -37 C 10 -35.851562 7.910156 -34.347656 6.234375 -32.484375 C 4.554688 -30.628906 3.300781 -28.507812 2.46875 -26.125 C 1.644531 -23.738281 1.234375 -21.304688 1.234375 -18.828125 C 1.234375 -16.359375 1.644531 -13.925781 2.46875 -11.53125 C 3.300781 -9.144531 4.554688 -7.023438 6.234375 -5.171875 C 7.910156 -3.316406 10 -1.8125 12.5 -0.65625 C 15.007812 0.488281 17.945312 1.0625 21.3125 1.0625 C 23.664062 1.0625 25.828125 0.75 27.796875 0.125 C 29.773438 -0.488281 31.546875 -1.328125 33.109375 -2.390625 C 34.671875 -3.453125 35.992188 -4.675781 37.078125 -6.0625 C 38.171875 -7.445312 39.015625 -8.90625 39.609375 -10.4375 C 39.785156 -10.84375 39.875 -11.222656 39.875 -11.578125 C 39.875 -12.171875 39.664062 -12.46875 39.25 -12.46875 C 38.894531 -12.46875 38.628906 -12.347656 38.453125 -12.109375 C 38.273438 -11.878906 38.039062 -11.5 37.75 -10.96875 C 37.101562 -9.664062 36.289062 -8.410156 35.3125 -7.203125 C 34.34375 -5.992188 33.179688 -4.914062 31.828125 -3.96875 C 30.472656 -3.03125 28.925781 -2.28125 27.1875 -1.71875 C 25.445312 -1.164062 23.488281 -0.890625 21.3125 -0.890625 C 20.425781 -0.890625 19.628906 -1.003906 18.921875 -1.234375 C 18.210938 -1.472656 17.609375 -1.914062 17.109375 -2.5625 C 16.609375 -3.207031 16.222656 -4.101562 15.953125 -5.25 C 15.691406 -6.40625 15.5625 -7.867188 15.5625 -9.640625 L 15.5625 -21.84375 Z M 15.5625 -30.0625 C 15.5625 -34.769531 17.445312 -37.125 21.21875 -37.125 C 24.875 -37.125 26.703125 -34.769531 26.703125 -30.0625 L 26.703125 -23.515625 L 15.5625 -23.515625 Z M 15.5625 -30.0625 "/></g></g></g><g fill="#373f68" fill-opacity="1"><g transform="translate(225.148324, 70.880879)"><g><path d="M 28.03125 -38.375 L 26.171875 -36.15625 C 25.398438 -36.800781 24.304688 -37.390625 22.890625 -37.921875 C 21.484375 -38.453125 19.773438 -38.71875 17.765625 -38.71875 C 15.117188 -38.71875 12.820312 -38.332031 10.875 -37.5625 C 8.925781 -36.800781 7.332031 -35.800781 6.09375 -34.5625 C 4.863281 -33.320312 3.9375 -31.90625 3.3125 -30.3125 C 2.695312 -28.726562 2.390625 -27.113281 2.390625 -25.46875 C 2.390625 -23.695312 2.695312 -22.015625 3.3125 -20.421875 C 3.9375 -18.828125 4.835938 -17.441406 6.015625 -16.265625 C 7.191406 -15.085938 8.632812 -14.160156 10.34375 -13.484375 C 12.050781 -12.804688 14.023438 -12.46875 16.265625 -12.46875 C 18.265625 -12.46875 19.867188 -12.273438 21.078125 -11.890625 C 22.285156 -11.503906 23.195312 -11.015625 23.8125 -10.421875 C 24.4375 -9.835938 24.835938 -9.191406 25.015625 -8.484375 C 25.191406 -7.773438 25.28125 -7.097656 25.28125 -6.453125 C 25.28125 -4.984375 24.660156 -3.628906 23.421875 -2.390625 C 22.191406 -1.148438 20.101562 -0.53125 17.15625 -0.53125 C 13.96875 -0.53125 11.296875 -1.335938 9.140625 -2.953125 C 6.992188 -4.578125 5.332031 -7.304688 4.15625 -11.140625 C 3.863281 -12.203125 3.507812 -12.734375 3.09375 -12.734375 C 2.625 -12.734375 2.390625 -12.320312 2.390625 -11.5 L 2.390625 -0.09375 C 2.390625 0.382812 2.566406 0.625 2.921875 0.625 C 3.148438 0.625 3.351562 0.535156 3.53125 0.359375 C 3.707031 0.179688 3.859375 -0.0234375 3.984375 -0.265625 L 5.75 -2.734375 C 6.863281 -1.910156 8.394531 -1.070312 10.34375 -0.21875 C 12.289062 0.632812 14.5625 1.0625 17.15625 1.0625 C 19.75 1.0625 21.988281 0.648438 23.875 -0.171875 C 25.757812 -1.003906 27.316406 -2.097656 28.546875 -3.453125 C 29.785156 -4.804688 30.710938 -6.335938 31.328125 -8.046875 C 31.953125 -9.753906 32.265625 -11.492188 32.265625 -13.265625 C 32.265625 -14.972656 32.054688 -16.59375 31.640625 -18.125 C 31.234375 -19.65625 30.515625 -21.007812 29.484375 -22.1875 C 28.453125 -23.363281 27.066406 -24.289062 25.328125 -24.96875 C 23.585938 -25.644531 21.390625 -25.984375 18.734375 -25.984375 C 15.554688 -25.984375 13.289062 -26.457031 11.9375 -27.40625 C 10.582031 -28.351562 9.90625 -29.679688 9.90625 -31.390625 C 9.90625 -32.796875 10.535156 -34.101562 11.796875 -35.3125 C 13.066406 -36.519531 15.054688 -37.125 17.765625 -37.125 C 18.765625 -37.125 19.796875 -36.945312 20.859375 -36.59375 C 21.921875 -36.238281 22.921875 -35.738281 23.859375 -35.09375 C 24.804688 -34.445312 25.617188 -33.664062 26.296875 -32.75 C 26.972656 -31.84375 27.460938 -30.796875 27.765625 -29.609375 C 27.941406 -28.734375 28.234375 -28.296875 28.640625 -28.296875 C 29.054688 -28.296875 29.265625 -28.796875 29.265625 -29.796875 L 29.265625 -38.109375 C 29.265625 -38.640625 29.117188 -38.90625 28.828125 -38.90625 C 28.523438 -38.90625 28.34375 -38.84375 28.28125 -38.71875 C 28.226562 -38.601562 28.144531 -38.488281 28.03125 -38.375 Z M 28.03125 -38.375 "/></g></g></g><g fill="#373f68" fill-opacity="1"><g transform="translate(261.836516, 70.880879)"><g><path d="M 19.890625 -52.859375 L 18.65625 -52.859375 C 18.300781 -50.617188 17.695312 -48.660156 16.84375 -46.984375 C 15.988281 -45.304688 15.015625 -43.878906 13.921875 -42.703125 C 12.828125 -41.523438 11.644531 -40.550781 10.375 -39.78125 C 9.113281 -39.019531 7.863281 -38.429688 6.625 -38.015625 L 1.859375 -38.015625 L 1.859375 -36.59375 L 6.625 -36.59375 L 6.625 -15.5625 C 6.625 -12.320312 7.019531 -9.640625 7.8125 -7.515625 C 8.613281 -5.390625 9.707031 -3.691406 11.09375 -2.421875 C 12.476562 -1.160156 14.097656 -0.265625 15.953125 0.265625 C 17.804688 0.796875 19.769531 1.0625 21.84375 1.0625 C 25.4375 1.0625 28.054688 0.328125 29.703125 -1.140625 C 31.359375 -2.617188 32.421875 -4.625 32.890625 -7.15625 L 32.890625 -7.421875 C 32.890625 -8.078125 32.625 -8.40625 32.09375 -8.40625 C 31.914062 -8.40625 31.738281 -8.316406 31.5625 -8.140625 C 31.382812 -7.960938 31.265625 -7.695312 31.203125 -7.34375 C 30.910156 -5.570312 30.25 -4.1875 29.21875 -3.1875 C 28.1875 -2.1875 26.992188 -1.6875 25.640625 -1.6875 C 23.398438 -1.6875 21.878906 -2.65625 21.078125 -4.59375 C 20.285156 -6.539062 19.890625 -9.722656 19.890625 -14.140625 L 19.890625 -36.59375 L 26.515625 -36.59375 L 26.515625 -38.015625 L 19.890625 -38.015625 Z M 19.890625 -52.859375 "/></g></g></g><g fill="#373f68" fill-opacity="1"><g transform="translate(298.082689, 70.880879)"><g><path d="M 20.421875 -1.421875 L 20.421875 -61.796875 L 2.390625 -58.4375 L 2.390625 -57.015625 L 7.15625 -57.90625 L 7.15625 -1.421875 L 2.390625 -1.421875 L 2.390625 0 L 25.203125 0 L 25.203125 -1.421875 Z M 20.421875 -1.421875 "/></g></g></g><g fill="#373f68" fill-opacity="1"><g transform="translate(327.610124, 70.880879)"><g><path d="M 28.109375 -0.53125 L 40.578125 -33.15625 C 41.046875 -34.445312 41.75 -35.34375 42.6875 -35.84375 C 43.632812 -36.34375 44.703125 -36.59375 45.890625 -36.59375 L 45.890625 -38.015625 L 35.453125 -38.015625 L 35.453125 -36.59375 C 36.867188 -36.59375 37.835938 -36.375 38.359375 -35.9375 C 38.890625 -35.5 39.15625 -35.039062 39.15625 -34.5625 C 39.15625 -33.976562 39.070312 -33.507812 38.90625 -33.15625 L 31.03125 -12.546875 L 19.625 -36.59375 L 24.40625 -36.59375 L 24.40625 -38.015625 L 1.59375 -38.015625 L 1.59375 -36.59375 L 6.28125 -36.59375 L 25.28125 3 C 24.988281 4.238281 24.632812 5.535156 24.21875 6.890625 C 23.8125 8.242188 23.222656 10.015625 22.453125 12.203125 C 21.515625 14.910156 20.46875 17.101562 19.3125 18.78125 C 18.164062 20.46875 16.503906 21.3125 14.328125 21.3125 C 14.910156 20.894531 15.394531 20.375 15.78125 19.75 C 16.164062 19.132812 16.359375 18.207031 16.359375 16.96875 C 16.359375 15.613281 15.882812 14.421875 14.9375 13.390625 C 14 12.359375 12.703125 11.84375 11.046875 11.84375 C 9.398438 11.84375 8.03125 12.34375 6.9375 13.34375 C 5.84375 14.351562 5.296875 15.59375 5.296875 17.0625 C 5.296875 19.0625 6.003906 20.5625 7.421875 21.5625 C 8.835938 22.570312 10.398438 23.078125 12.109375 23.078125 C 13.816406 23.078125 15.257812 22.914062 16.4375 22.59375 C 17.625 22.269531 18.628906 21.738281 19.453125 21 C 20.273438 20.257812 21.007812 19.300781 21.65625 18.125 C 22.300781 16.945312 22.953125 15.472656 23.609375 13.703125 C 24.015625 12.523438 24.425781 11.269531 24.84375 9.9375 C 25.257812 8.613281 25.65625 7.316406 26.03125 6.046875 C 26.414062 4.785156 26.785156 3.578125 27.140625 2.421875 C 27.492188 1.273438 27.816406 0.289062 28.109375 -0.53125 Z M 28.109375 -0.53125 "/></g></g></g></g></g></svg>